<?xml version="1.0" encoding="UTF-8" standalone="no"?>
<!-- Created with Inkscape (http://www.inkscape.org/) -->

<svg
   width="662.51117"
   height="416.70395"
   viewBox="0 0 175.28941 110.25292"
   version="1.1"
   id="svg1"
   xml:space="preserve"
   sodipodi:docname="splash-logo2.svg"
   inkscape:version="1.3.2 (091e20e, 2023-11-25, custom)"
   xmlns:inkscape="http://www.inkscape.org/namespaces/inkscape"
   xmlns:sodipodi="http://sodipodi.sourceforge.net/DTD/sodipodi-0.dtd"
   xmlns="http://www.w3.org/2000/svg"
   xmlns:svg="http://www.w3.org/2000/svg"><sodipodi:namedview
     id="namedview1"
     pagecolor="#ffffff"
     bordercolor="#000000"
     borderopacity="0.25"
     inkscape:showpageshadow="2"
     inkscape:pageopacity="0.0"
     inkscape:pagecheckerboard="0"
     inkscape:deskcolor="#d1d1d1"
     inkscape:zoom="1.6291667"
     inkscape:cx="331.7647"
     inkscape:cy="208.38874"
     inkscape:window-width="3440"
     inkscape:window-height="1369"
     inkscape:window-x="1912"
     inkscape:window-y="-8"
     inkscape:window-maximized="1"
     inkscape:current-layer="svg1" /><defs
     id="defs1"><filter
       id="neonGlowBlur"
       x="-0.034709189"
       y="-0.79201861"
       width="1.0694184"
       height="2.5840372"><feGaussianBlur
         stdDeviation="22"
         id="feGaussianBlur28" /></filter></defs><path
     d="m 285.18555,1168.6768 17.44629,5.2734 q -1.75782,7.3389 -5.53711,12.2607 -3.7793,4.9219 -9.4043,7.4268 -5.58106,2.5049 -14.23828,2.5049 -10.50293,0 -17.18262,-3.0322 -6.63574,-3.0762 -11.46973,-10.7666 -4.83398,-7.6905 -4.83398,-19.6875 0,-15.9961 8.48145,-24.5655 8.52539,-8.6133 24.08203,-8.6133 12.17285,0 19.11621,4.9219 6.9873,4.9219 10.37109,15.1172 l -17.57812,3.9111 q -0.92286,-2.9443 -1.9336,-4.3066 -1.66992,-2.2852 -4.08691,-3.5156 -2.41699,-1.2305 -5.40527,-1.2305 -6.76758,0 -10.3711,5.4492 -2.72461,4.043 -2.72461,12.7002 0,10.7227 3.25196,14.7217 3.25195,3.9551 9.14062,3.9551 5.71289,0 8.61328,-3.208 2.94434,-3.208 4.2627,-9.3164 z m 23.73047,3.1201 q 0,-10.6787 7.20703,-17.5781 7.20703,-6.9434 19.46777,-6.9434 14.01855,0 21.18164,8.1299 5.75684,6.5478 5.75684,16.1279 0,10.7666 -7.16309,17.666 -7.11914,6.8555 -19.73144,6.8555 -11.25,0 -18.19336,-5.7129 -8.52539,-7.0752 -8.52539,-18.5449 z m 17.92968,-0.044 q 0,6.2403 2.50489,9.2285 2.54882,2.9883 6.37207,2.9883 3.86718,0 6.32812,-2.9443 2.50488,-2.9443 2.50488,-9.4483 0,-6.0644 -2.50488,-9.0087 -2.50488,-2.9883 -6.19629,-2.9883 -3.91113,0 -6.45996,3.0322 -2.54883,2.9883 -2.54883,9.1406 z m 44.29688,-23.4228 h 16.65527 v 7.6025 q 3.73535,-4.6582 7.5586,-6.6357 3.82324,-2.0215 9.3164,-2.0215 7.42676,0 11.60156,4.4385 4.21875,4.3945 4.21875,13.623 V 1195 h -17.97363 v -25.6641 q 0,-4.3945 -1.62598,-6.1963 -1.62597,-1.8457 -4.57031,-1.8457 -3.25195,0 -5.27344,2.461 -2.02148,2.4609 -2.02148,8.833 V 1195 h -17.88574 z m 81.60644,-17.7539 v 17.7539 h 9.84375 v 13.0517 h -9.84375 v 16.5674 q 0,2.9883 0.57129,3.9551 0.87891,1.4941 3.07617,1.4941 1.97754,0 5.53711,-1.1425 l 1.31836,12.3486 q -6.63574,1.4502 -12.39258,1.4502 -6.67968,0 -9.84375,-1.7139 -3.16406,-1.7138 -4.70214,-5.1855 -1.49414,-3.5157 -1.49414,-11.3379 v -16.4356 h -6.5918 v -13.0517 h 6.5918 v -8.5694 z m 19.02832,0 h 17.88575 v 12.1728 h -17.88575 z m 0,17.7539 h 17.88575 V 1195 h -17.88575 z m 29.31153,0 h 16.65527 v 7.6025 q 3.73535,-4.6582 7.55859,-6.6357 3.82325,-2.0215 9.31641,-2.0215 7.42676,0 11.60156,4.4385 4.21875,4.3945 4.21875,13.623 V 1195 h -17.97363 v -25.6641 q 0,-4.3945 -1.62598,-6.1963 -1.62597,-1.8457 -4.57031,-1.8457 -3.25195,0 -5.27344,2.461 -2.02148,2.4609 -2.02148,8.833 V 1195 H 501.08887 Z M 610.29297,1195 h -16.69922 v -7.5586 q -3.73535,4.6582 -7.55859,6.6357 -3.7793,1.9776 -9.31641,1.9776 -7.38281,0 -11.60156,-4.3945 -4.17481,-4.4385 -4.17481,-13.6231 v -29.707 h 17.97364 v 25.664 q 0,4.3946 1.62597,6.2403 1.62598,1.8457 4.57031,1.8457 3.20801,0 5.2295,-2.461 2.06543,-2.4609 2.06543,-8.833 v -22.456 h 17.88574 z m 62.66601,-18.8965 h -35.85937 q 0.4834,4.3067 2.3291,6.416 2.59277,3.0323 6.76758,3.0323 2.63672,0 5.00976,-1.3184 1.4502,-0.835 3.12012,-2.9443 l 17.62207,1.6259 q -4.04297,7.0313 -9.75586,10.1075 -5.71289,3.0322 -16.3916,3.0322 -9.27246,0 -14.58984,-2.5928 -5.31739,-2.6367 -8.83301,-8.3056 -3.47168,-5.7129 -3.47168,-13.4034 0,-10.9424 6.9873,-17.7099 7.03125,-6.7676 19.37989,-6.7676 10.01953,0 15.82031,3.0322 5.80078,3.0322 8.83301,8.7891 3.03222,5.7568 3.03222,14.9853 z m -18.19336,-8.5693 q -0.52734,-5.1856 -2.8125,-7.4268 -2.24121,-2.2412 -5.93261,-2.2412 -4.2627,0 -6.81153,3.3838 -1.62597,2.1094 -2.06543,6.2842 z m 51.1084,-36.958 h 22.1045 l 13.00781,21.7529 13.00781,-21.7529 h 21.97266 l -25.04883,37.4414 V 1195 H 730.9668 v -26.9824 z m 65.47852,41.2207 q 0,-10.6787 7.20703,-17.5781 7.20703,-6.9434 19.46777,-6.9434 14.01856,0 21.18164,8.1299 5.75684,6.5478 5.75684,16.1279 0,10.7666 -7.16309,17.666 -7.11914,6.8555 -19.73144,6.8555 -11.25,0 -18.19336,-5.7129 -8.52539,-7.0752 -8.52539,-18.5449 z m 17.92969,-0.044 q 0,6.2403 2.50488,9.2285 2.54883,2.9883 6.37207,2.9883 3.86719,0 6.32812,-2.9443 2.50489,-2.9443 2.50489,-9.4483 0,-6.0644 -2.50489,-9.0087 -2.50488,-2.9883 -6.19628,-2.9883 -3.91114,0 -6.45997,3.0322 -2.54882,2.9883 -2.54882,9.1406 z M 882.75391,1195 h -16.69922 v -7.5586 q -3.73535,4.6582 -7.5586,6.6357 -3.77929,1.9776 -9.3164,1.9776 -7.38282,0 -11.60157,-4.3945 -4.1748,-4.4385 -4.1748,-13.6231 v -29.707 h 17.97363 v 25.664 q 0,4.3946 1.62598,6.2403 1.62598,1.8457 4.57031,1.8457 3.20801,0 5.22949,-2.461 2.06543,-2.4609 2.06543,-8.833 v -22.456 h 17.88575 z m 11.03027,-46.6699 h 16.74316 v 7.6465 q 2.417,-4.9659 4.96582,-6.8116 2.59278,-1.8896 6.37207,-1.8896 3.95508,0 8.65723,2.4609 l -5.53711,12.7442 q -3.16406,-1.3184 -5.00976,-1.3184 -3.51563,0 -5.44922,2.9004 -2.76856,4.0869 -2.76856,15.293 V 1195 h -17.97363 z m 67.5,25.3564 18.94043,-1.1865 q 0.61523,4.6143 2.50488,7.0313 3.07617,3.9111 8.78906,3.9111 4.2627,0 6.54786,-1.9776 2.32909,-2.0214 2.32909,-4.6582 0,-2.5048 -2.19726,-4.4824 -2.19726,-1.9775 -10.19531,-3.7353 -13.0957,-2.9444 -18.67676,-7.8223 -5.625,-4.8779 -5.625,-12.4365 0,-4.9658 2.85645,-9.3604 2.90039,-4.4384 8.65722,-6.9433 5.80078,-2.5489 15.86426,-2.5489 12.3486,0 18.8086,4.6143 6.5039,4.5703 7.7344,14.5898 l -18.76468,1.0987 q -0.74707,-4.3506 -3.16406,-6.3282 -2.37305,-1.9775 -6.5918,-1.9775 -3.47168,0 -5.22949,1.4942 -1.75781,1.4501 -1.75781,3.5595 0,1.5381 1.45019,2.7686 1.40625,1.2744 6.67969,2.373 13.05176,2.8125 18.67676,5.7129 5.6689,2.8565 8.2178,7.1192 2.5927,4.2626 2.5927,9.5361 0,6.1963 -3.4277,11.4258 -3.4277,5.2295 -9.5801,7.9541 -6.1523,2.6806 -15.51266,2.6806 -16.43555,0 -22.76367,-6.3281 -6.32813,-6.3281 -7.16309,-16.084 z m 83.58402,-10.2392 -17.0948,-1.8018 q 0.9668,-4.4824 2.7686,-7.0312 1.8457,-2.5928 5.2734,-4.4825 2.461,-1.3623 6.7676,-2.1093 4.3066,-0.7471 9.3164,-0.7471 8.042,0 12.9199,0.9228 4.878,0.8789 8.1299,3.7354 2.2852,1.9775 3.6035,5.625 1.3184,3.6035 1.3184,6.8994 v 20.6104 q 0,3.2959 0.3955,5.1855 0.4395,1.8457 1.8457,4.7461 h -16.7871 q -1.0107,-1.8018 -1.3184,-2.7246 -0.3076,-0.9668 -0.6152,-2.9883 -3.5156,3.3838 -6.9873,4.834 -4.7461,1.9336 -11.0303,1.9336 -8.3496,0 -12.7002,-3.8672 -4.3066,-3.8672 -4.3066,-9.5361 0,-5.3174 3.1201,-8.7451 3.1201,-3.4278 11.5137,-5.0977 10.0635,-2.0215 13.0517,-2.8125 2.9883,-0.835 6.3282,-2.1533 0,-3.2959 -1.3623,-4.6143 -1.3623,-1.3183 -4.7901,-1.3183 -4.3945,0 -6.5918,1.4062 -1.7138,1.0986 -2.7685,4.1309 z m 15.5127,9.4043 q -3.6914,1.3183 -7.6905,2.3291 -5.4492,1.4502 -6.8994,2.8564 -1.4941,1.4502 -1.4941,3.2959 0,2.1094 1.4502,3.4717 1.4941,1.3183 4.3506,1.3183 2.9882,0 5.5371,-1.4501 2.5927,-1.4502 3.6474,-3.5157 1.0987,-2.1093 1.0987,-5.4492 z m 21.3574,-24.5215 h 18.6328 l 9.0527,29.5752 9.3604,-29.5752 h 18.0615 L 1117.0264,1195 h -15.8643 z m 109.7754,27.7734 h -35.8594 q 0.4834,4.3067 2.3291,6.416 2.5928,3.0323 6.7676,3.0323 2.6367,0 5.0097,-1.3184 1.4502,-0.835 3.1202,-2.9443 l 17.622,1.6259 q -4.0429,7.0313 -9.7558,10.1075 -5.7129,3.0322 -16.3916,3.0322 -9.2725,0 -14.5899,-2.5928 -5.3174,-2.6367 -8.833,-8.3056 -3.4717,-5.7129 -3.4717,-13.4034 0,-10.9424 6.9873,-17.7099 7.0313,-6.7676 19.3799,-6.7676 10.0196,0 15.8203,3.0322 5.8008,3.0322 8.833,8.7891 3.0323,5.7568 3.0323,14.9853 z m -18.1934,-8.5693 q -0.5273,-5.1856 -2.8125,-7.4268 -2.2412,-2.2412 -5.9326,-2.2412 -4.2627,0 -6.8115,3.3838 -1.626,2.1094 -2.0655,6.2842 z m 75.542,-36.958 V 1195 h -16.7432 v -6.8994 q -3.5156,4.3945 -6.416,5.9326 -3.8672,2.0215 -8.6133,2.0215 -9.5361,0 -14.5898,-7.251 -5.0098,-7.251 -5.0098,-17.6221 0,-11.6015 5.5371,-17.7539 5.5811,-6.1523 14.1504,-6.1523 4.1748,0 7.5586,1.4062 3.4278,1.4063 6.0645,4.2188 v -22.3242 z m -17.9297,40.957 q 0,-5.4932 -2.3291,-8.1738 -2.3291,-2.7246 -5.8887,-2.7246 -3.1201,0 -5.2294,2.5927 -2.1094,2.5928 -2.1094,8.7012 0,5.7129 2.1533,8.3936 2.1973,2.6367 5.4053,2.6367 3.4277,0 5.7129,-2.6807 2.2851,-2.6806 2.2851,-8.7451 z m 59.8096,-40.957 h 26.1914 l 10.1074,39.1992 10.0635,-39.1992 h 26.1035 V 1195 h -16.2598 v -49.1309 L 1334.3359,1195 h -14.7216 l -12.5684,-49.1309 V 1195 h -16.3037 z m 135.791,45.5273 h -35.8594 q 0.4834,4.3067 2.3291,6.416 2.5928,3.0323 6.7676,3.0323 2.6367,0 5.0098,-1.3184 1.4502,-0.835 3.1201,-2.9443 l 17.6221,1.6259 q -4.043,7.0313 -9.7559,10.1075 -5.7129,3.0322 -16.3916,3.0322 -9.2725,0 -14.5898,-2.5928 -5.3174,-2.6367 -8.8331,-8.3056 -3.4716,-5.7129 -3.4716,-13.4034 0,-10.9424 6.9873,-17.7099 7.0312,-6.7676 19.3799,-6.7676 10.0195,0 15.8203,3.0322 5.8008,3.0322 8.833,8.7891 3.0322,5.7568 3.0322,14.9853 z m -18.1934,-8.5693 q -0.5273,-5.1856 -2.8125,-7.4268 -2.2412,-2.2412 -5.9326,-2.2412 -4.2627,0 -6.8115,3.3838 -1.626,2.1094 -2.0654,6.2842 z m 26.543,-19.2041 h 16.6992 v 6.8115 q 3.6035,-4.2627 7.251,-6.0645 3.6914,-1.8017 8.877,-1.8017 5.581,0 8.833,1.9775 3.2519,1.9776 5.3174,5.8887 4.2187,-4.5703 7.6904,-6.1963 3.4717,-1.6699 8.5693,-1.6699 7.5147,0 11.7334,4.4824 4.2188,4.4385 4.2188,13.9307 V 1195 h -17.9297 v -26.5869 q 0,-3.1641 -1.2305,-4.7022 -1.8017,-2.417 -4.4824,-2.417 -3.1641,0 -5.0977,2.2852 -1.9336,2.2852 -1.9336,7.3389 V 1195 h -17.9296 v -25.708 q 0,-3.0762 -0.3516,-4.1748 -0.5713,-1.7578 -1.9776,-2.8125 -1.4062,-1.0986 -3.2958,-1.0986 -3.0762,0 -5.0538,2.3291 -1.9775,2.3291 -1.9775,7.6464 V 1195 h -17.9297 z m 87.6709,23.4668 q 0,-10.6787 7.207,-17.5781 7.2071,-6.9434 19.4678,-6.9434 14.0186,0 21.1817,8.1299 5.7568,6.5478 5.7568,16.1279 0,10.7666 -7.1631,17.666 -7.1191,6.8555 -19.7314,6.8555 -11.25,0 -18.1934,-5.7129 -8.5254,-7.0752 -8.5254,-18.5449 z m 17.9297,-0.044 q 0,6.2403 2.5049,9.2285 2.5488,2.9883 6.3721,2.9883 3.8671,0 6.3281,-2.9443 2.5049,-2.9443 2.5049,-9.4483 0,-6.0644 -2.5049,-9.0087 -2.5049,-2.9883 -6.1963,-2.9883 -3.9111,0 -6.46,3.0322 -2.5488,2.9883 -2.5488,9.1406 z m 44.4727,-23.4228 h 16.7431 v 7.6465 q 2.417,-4.9659 4.9658,-6.8116 2.5928,-1.8896 6.3721,-1.8896 3.9551,0 8.6572,2.4609 l -5.5371,12.7442 q -3.164,-1.3184 -5.0097,-1.3184 -3.5157,0 -5.4493,2.9004 -2.7685,4.0869 -2.7685,15.293 V 1195 h -17.9736 z m 40.4296,-17.7539 h 17.8858 v 12.1728 h -17.8858 z m 0,17.7539 h 17.8858 V 1195 h -17.8858 z m 81.1231,27.7734 h -35.8594 q 0.4834,4.3067 2.3291,6.416 2.5928,3.0323 6.7676,3.0323 2.6367,0 5.0098,-1.3184 1.4502,-0.835 3.1201,-2.9443 l 17.622,1.6259 q -4.0429,7.0313 -9.7558,10.1075 -5.7129,3.0322 -16.3916,3.0322 -9.2725,0 -14.5899,-2.5928 -5.3173,-2.6367 -8.833,-8.3056 -3.4716,-5.7129 -3.4716,-13.4034 0,-10.9424 6.9873,-17.7099 7.0312,-6.7676 19.3798,-6.7676 10.0196,0 15.8204,3.0322 5.8007,3.0322 8.833,8.7891 3.0322,5.7568 3.0322,14.9853 z m -18.1934,-8.5693 q -0.5273,-5.1856 -2.8125,-7.4268 -2.2412,-2.2412 -5.9326,-2.2412 -4.2627,0 -6.8115,3.3838 -1.626,2.1094 -2.0654,6.2842 z m 23.2471,14.5459 17.7539,-1.6699 q 1.0986,3.164 3.0762,4.5263 1.9775,1.3623 5.2734,1.3623 3.6035,0 5.5811,-1.5381 1.5381,-1.1425 1.5381,-2.8564 0,-1.9336 -2.0215,-2.9883 -1.4502,-0.7471 -7.6905,-1.8457 -9.3164,-1.626 -12.9638,-2.9883 -3.6035,-1.4062 -6.1084,-4.7021 -2.461,-3.2959 -2.461,-7.5147 0,-4.6142 2.6807,-7.9541 2.6807,-3.3398 7.3828,-4.9658 4.7022,-1.6699 12.6123,-1.6699 8.3496,0 12.3047,1.2744 3.999,1.2744 6.6358,3.9551 2.6806,2.6806 4.4384,7.251 l -16.9629,1.6699 q -0.6591,-2.2412 -2.1972,-3.2959 -2.1094,-1.4063 -5.0977,-1.4063 -3.0322,0 -4.4385,1.0987 -1.3623,1.0547 -1.3623,2.5927 0,1.7139 1.7578,2.5928 1.7579,0.8789 7.6465,1.582 8.9209,1.0108 13.2715,2.8125 4.3506,1.8018 6.6358,5.1416 2.3291,3.3399 2.3291,7.3389 0,4.043 -2.461,7.8662 -2.417,3.8233 -7.6904,6.1084 -5.2295,2.2412 -14.2822,2.2412 -12.7881,0 -18.2373,-3.6474 -5.4053,-3.6475 -6.9434,-10.3711 z"
     id="text28"
     style="font-weight:800;font-size:90px;font-family:'Arial Black', 'Segoe UI', sans-serif;text-anchor:middle;fill:#ff00ff;filter:url(#neonGlowBlur)"
     transform="matrix(0.05696555,0,0,0.05696555,30.646611,39.106216)"
     aria-label="Continue Your Saved Memories" /><path
     d="m 285.18555,1168.6768 17.44629,5.2734 q -1.75782,7.3389 -5.53711,12.2607 -3.7793,4.9219 -9.4043,7.4268 -5.58106,2.5049 -14.23828,2.5049 -10.50293,0 -17.18262,-3.0322 -6.63574,-3.0762 -11.46973,-10.7666 -4.83398,-7.6905 -4.83398,-19.6875 0,-15.9961 8.48145,-24.5655 8.52539,-8.6133 24.08203,-8.6133 12.17285,0 19.11621,4.9219 6.9873,4.9219 10.37109,15.1172 l -17.57812,3.9111 q -0.92286,-2.9443 -1.9336,-4.3066 -1.66992,-2.2852 -4.08691,-3.5156 -2.41699,-1.2305 -5.40527,-1.2305 -6.76758,0 -10.3711,5.4492 -2.72461,4.043 -2.72461,12.7002 0,10.7227 3.25196,14.7217 3.25195,3.9551 9.14062,3.9551 5.71289,0 8.61328,-3.208 2.94434,-3.208 4.2627,-9.3164 z m 23.73047,3.1201 q 0,-10.6787 7.20703,-17.5781 7.20703,-6.9434 19.46777,-6.9434 14.01855,0 21.18164,8.1299 5.75684,6.5478 5.75684,16.1279 0,10.7666 -7.16309,17.666 -7.11914,6.8555 -19.73144,6.8555 -11.25,0 -18.19336,-5.7129 -8.52539,-7.0752 -8.52539,-18.5449 z m 17.92968,-0.044 q 0,6.2403 2.50489,9.2285 2.54882,2.9883 6.37207,2.9883 3.86718,0 6.32812,-2.9443 2.50488,-2.9443 2.50488,-9.4483 0,-6.0644 -2.50488,-9.0087 -2.50488,-2.9883 -6.19629,-2.9883 -3.91113,0 -6.45996,3.0322 -2.54883,2.9883 -2.54883,9.1406 z m 44.29688,-23.4228 h 16.65527 v 7.6025 q 3.73535,-4.6582 7.5586,-6.6357 3.82324,-2.0215 9.3164,-2.0215 7.42676,0 11.60156,4.4385 4.21875,4.3945 4.21875,13.623 V 1195 h -17.97363 v -25.6641 q 0,-4.3945 -1.62598,-6.1963 -1.62597,-1.8457 -4.57031,-1.8457 -3.25195,0 -5.27344,2.461 -2.02148,2.4609 -2.02148,8.833 V 1195 h -17.88574 z m 81.60644,-17.7539 v 17.7539 h 9.84375 v 13.0517 h -9.84375 v 16.5674 q 0,2.9883 0.57129,3.9551 0.87891,1.4941 3.07617,1.4941 1.97754,0 5.53711,-1.1425 l 1.31836,12.3486 q -6.63574,1.4502 -12.39258,1.4502 -6.67968,0 -9.84375,-1.7139 -3.16406,-1.7138 -4.70214,-5.1855 -1.49414,-3.5157 -1.49414,-11.3379 v -16.4356 h -6.5918 v -13.0517 h 6.5918 v -8.5694 z m 19.02832,0 h 17.88575 v 12.1728 h -17.88575 z m 0,17.7539 h 17.88575 V 1195 h -17.88575 z m 29.31153,0 h 16.65527 v 7.6025 q 3.73535,-4.6582 7.55859,-6.6357 3.82325,-2.0215 9.31641,-2.0215 7.42676,0 11.60156,4.4385 4.21875,4.3945 4.21875,13.623 V 1195 h -17.97363 v -25.6641 q 0,-4.3945 -1.62598,-6.1963 -1.62597,-1.8457 -4.57031,-1.8457 -3.25195,0 -5.27344,2.461 -2.02148,2.4609 -2.02148,8.833 V 1195 H 501.08887 Z M 610.29297,1195 h -16.69922 v -7.5586 q -3.73535,4.6582 -7.55859,6.6357 -3.7793,1.9776 -9.31641,1.9776 -7.38281,0 -11.60156,-4.3945 -4.17481,-4.4385 -4.17481,-13.6231 v -29.707 h 17.97364 v 25.664 q 0,4.3946 1.62597,6.2403 1.62598,1.8457 4.57031,1.8457 3.20801,0 5.2295,-2.461 2.06543,-2.4609 2.06543,-8.833 v -22.456 h 17.88574 z m 62.66601,-18.8965 h -35.85937 q 0.4834,4.3067 2.3291,6.416 2.59277,3.0323 6.76758,3.0323 2.63672,0 5.00976,-1.3184 1.4502,-0.835 3.12012,-2.9443 l 17.62207,1.6259 q -4.04297,7.0313 -9.75586,10.1075 -5.71289,3.0322 -16.3916,3.0322 -9.27246,0 -14.58984,-2.5928 -5.31739,-2.6367 -8.83301,-8.3056 -3.47168,-5.7129 -3.47168,-13.4034 0,-10.9424 6.9873,-17.7099 7.03125,-6.7676 19.37989,-6.7676 10.01953,0 15.82031,3.0322 5.80078,3.0322 8.83301,8.7891 3.03222,5.7568 3.03222,14.9853 z m -18.19336,-8.5693 q -0.52734,-5.1856 -2.8125,-7.4268 -2.24121,-2.2412 -5.93261,-2.2412 -4.2627,0 -6.81153,3.3838 -1.62597,2.1094 -2.06543,6.2842 z m 51.1084,-36.958 h 22.1045 l 13.00781,21.7529 13.00781,-21.7529 h 21.97266 l -25.04883,37.4414 V 1195 H 730.9668 v -26.9824 z m 65.47852,41.2207 q 0,-10.6787 7.20703,-17.5781 7.20703,-6.9434 19.46777,-6.9434 14.01856,0 21.18164,8.1299 5.75684,6.5478 5.75684,16.1279 0,10.7666 -7.16309,17.666 -7.11914,6.8555 -19.73144,6.8555 -11.25,0 -18.19336,-5.7129 -8.52539,-7.0752 -8.52539,-18.5449 z m 17.92969,-0.044 q 0,6.2403 2.50488,9.2285 2.54883,2.9883 6.37207,2.9883 3.86719,0 6.32812,-2.9443 2.50489,-2.9443 2.50489,-9.4483 0,-6.0644 -2.50489,-9.0087 -2.50488,-2.9883 -6.19628,-2.9883 -3.91114,0 -6.45997,3.0322 -2.54882,2.9883 -2.54882,9.1406 z M 882.75391,1195 h -16.69922 v -7.5586 q -3.73535,4.6582 -7.5586,6.6357 -3.77929,1.9776 -9.3164,1.9776 -7.38282,0 -11.60157,-4.3945 -4.1748,-4.4385 -4.1748,-13.6231 v -29.707 h 17.97363 v 25.664 q 0,4.3946 1.62598,6.2403 1.62598,1.8457 4.57031,1.8457 3.20801,0 5.22949,-2.461 2.06543,-2.4609 2.06543,-8.833 v -22.456 h 17.88575 z m 11.03027,-46.6699 h 16.74316 v 7.6465 q 2.417,-4.9659 4.96582,-6.8116 2.59278,-1.8896 6.37207,-1.8896 3.95508,0 8.65723,2.4609 l -5.53711,12.7442 q -3.16406,-1.3184 -5.00976,-1.3184 -3.51563,0 -5.44922,2.9004 -2.76856,4.0869 -2.76856,15.293 V 1195 h -17.97363 z m 67.5,25.3564 18.94043,-1.1865 q 0.61523,4.6143 2.50488,7.0313 3.07617,3.9111 8.78906,3.9111 4.2627,0 6.54786,-1.9776 2.32909,-2.0214 2.32909,-4.6582 0,-2.5048 -2.19726,-4.4824 -2.19726,-1.9775 -10.19531,-3.7353 -13.0957,-2.9444 -18.67676,-7.8223 -5.625,-4.8779 -5.625,-12.4365 0,-4.9658 2.85645,-9.3604 2.90039,-4.4384 8.65722,-6.9433 5.80078,-2.5489 15.86426,-2.5489 12.3486,0 18.8086,4.6143 6.5039,4.5703 7.7344,14.5898 l -18.76468,1.0987 q -0.74707,-4.3506 -3.16406,-6.3282 -2.37305,-1.9775 -6.5918,-1.9775 -3.47168,0 -5.22949,1.4942 -1.75781,1.4501 -1.75781,3.5595 0,1.5381 1.45019,2.7686 1.40625,1.2744 6.67969,2.373 13.05176,2.8125 18.67676,5.7129 5.6689,2.8565 8.2178,7.1192 2.5927,4.2626 2.5927,9.5361 0,6.1963 -3.4277,11.4258 -3.4277,5.2295 -9.5801,7.9541 -6.1523,2.6806 -15.51266,2.6806 -16.43555,0 -22.76367,-6.3281 -6.32813,-6.3281 -7.16309,-16.084 z m 83.58402,-10.2392 -17.0948,-1.8018 q 0.9668,-4.4824 2.7686,-7.0312 1.8457,-2.5928 5.2734,-4.4825 2.461,-1.3623 6.7676,-2.1093 4.3066,-0.7471 9.3164,-0.7471 8.042,0 12.9199,0.9228 4.878,0.8789 8.1299,3.7354 2.2852,1.9775 3.6035,5.625 1.3184,3.6035 1.3184,6.8994 v 20.6104 q 0,3.2959 0.3955,5.1855 0.4395,1.8457 1.8457,4.7461 h -16.7871 q -1.0107,-1.8018 -1.3184,-2.7246 -0.3076,-0.9668 -0.6152,-2.9883 -3.5156,3.3838 -6.9873,4.834 -4.7461,1.9336 -11.0303,1.9336 -8.3496,0 -12.7002,-3.8672 -4.3066,-3.8672 -4.3066,-9.5361 0,-5.3174 3.1201,-8.7451 3.1201,-3.4278 11.5137,-5.0977 10.0635,-2.0215 13.0517,-2.8125 2.9883,-0.835 6.3282,-2.1533 0,-3.2959 -1.3623,-4.6143 -1.3623,-1.3183 -4.7901,-1.3183 -4.3945,0 -6.5918,1.4062 -1.7138,1.0986 -2.7685,4.1309 z m 15.5127,9.4043 q -3.6914,1.3183 -7.6905,2.3291 -5.4492,1.4502 -6.8994,2.8564 -1.4941,1.4502 -1.4941,3.2959 0,2.1094 1.4502,3.4717 1.4941,1.3183 4.3506,1.3183 2.9882,0 5.5371,-1.4501 2.5927,-1.4502 3.6474,-3.5157 1.0987,-2.1093 1.0987,-5.4492 z m 21.3574,-24.5215 h 18.6328 l 9.0527,29.5752 9.3604,-29.5752 h 18.0615 L 1117.0264,1195 h -15.8643 z m 109.7754,27.7734 h -35.8594 q 0.4834,4.3067 2.3291,6.416 2.5928,3.0323 6.7676,3.0323 2.6367,0 5.0097,-1.3184 1.4502,-0.835 3.1202,-2.9443 l 17.622,1.6259 q -4.0429,7.0313 -9.7558,10.1075 -5.7129,3.0322 -16.3916,3.0322 -9.2725,0 -14.5899,-2.5928 -5.3174,-2.6367 -8.833,-8.3056 -3.4717,-5.7129 -3.4717,-13.4034 0,-10.9424 6.9873,-17.7099 7.0313,-6.7676 19.3799,-6.7676 10.0196,0 15.8203,3.0322 5.8008,3.0322 8.833,8.7891 3.0323,5.7568 3.0323,14.9853 z m -18.1934,-8.5693 q -0.5273,-5.1856 -2.8125,-7.4268 -2.2412,-2.2412 -5.9326,-2.2412 -4.2627,0 -6.8115,3.3838 -1.626,2.1094 -2.0655,6.2842 z m 75.542,-36.958 V 1195 h -16.7432 v -6.8994 q -3.5156,4.3945 -6.416,5.9326 -3.8672,2.0215 -8.6133,2.0215 -9.5361,0 -14.5898,-7.251 -5.0098,-7.251 -5.0098,-17.6221 0,-11.6015 5.5371,-17.7539 5.5811,-6.1523 14.1504,-6.1523 4.1748,0 7.5586,1.4062 3.4278,1.4063 6.0645,4.2188 v -22.3242 z m -17.9297,40.957 q 0,-5.4932 -2.3291,-8.1738 -2.3291,-2.7246 -5.8887,-2.7246 -3.1201,0 -5.2294,2.5927 -2.1094,2.5928 -2.1094,8.7012 0,5.7129 2.1533,8.3936 2.1973,2.6367 5.4053,2.6367 3.4277,0 5.7129,-2.6807 2.2851,-2.6806 2.2851,-8.7451 z m 59.8096,-40.957 h 26.1914 l 10.1074,39.1992 10.0635,-39.1992 h 26.1035 V 1195 h -16.2598 v -49.1309 L 1334.3359,1195 h -14.7216 l -12.5684,-49.1309 V 1195 h -16.3037 z m 135.791,45.5273 h -35.8594 q 0.4834,4.3067 2.3291,6.416 2.5928,3.0323 6.7676,3.0323 2.6367,0 5.0098,-1.3184 1.4502,-0.835 3.1201,-2.9443 l 17.6221,1.6259 q -4.043,7.0313 -9.7559,10.1075 -5.7129,3.0322 -16.3916,3.0322 -9.2725,0 -14.5898,-2.5928 -5.3174,-2.6367 -8.8331,-8.3056 -3.4716,-5.7129 -3.4716,-13.4034 0,-10.9424 6.9873,-17.7099 7.0312,-6.7676 19.3799,-6.7676 10.0195,0 15.8203,3.0322 5.8008,3.0322 8.833,8.7891 3.0322,5.7568 3.0322,14.9853 z m -18.1934,-8.5693 q -0.5273,-5.1856 -2.8125,-7.4268 -2.2412,-2.2412 -5.9326,-2.2412 -4.2627,0 -6.8115,3.3838 -1.626,2.1094 -2.0654,6.2842 z m 26.543,-19.2041 h 16.6992 v 6.8115 q 3.6035,-4.2627 7.251,-6.0645 3.6914,-1.8017 8.877,-1.8017 5.581,0 8.833,1.9775 3.2519,1.9776 5.3174,5.8887 4.2187,-4.5703 7.6904,-6.1963 3.4717,-1.6699 8.5693,-1.6699 7.5147,0 11.7334,4.4824 4.2188,4.4385 4.2188,13.9307 V 1195 h -17.9297 v -26.5869 q 0,-3.1641 -1.2305,-4.7022 -1.8017,-2.417 -4.4824,-2.417 -3.1641,0 -5.0977,2.2852 -1.9336,2.2852 -1.9336,7.3389 V 1195 h -17.9296 v -25.708 q 0,-3.0762 -0.3516,-4.1748 -0.5713,-1.7578 -1.9776,-2.8125 -1.4062,-1.0986 -3.2958,-1.0986 -3.0762,0 -5.0538,2.3291 -1.9775,2.3291 -1.9775,7.6464 V 1195 h -17.9297 z m 87.6709,23.4668 q 0,-10.6787 7.207,-17.5781 7.2071,-6.9434 19.4678,-6.9434 14.0186,0 21.1817,8.1299 5.7568,6.5478 5.7568,16.1279 0,10.7666 -7.1631,17.666 -7.1191,6.8555 -19.7314,6.8555 -11.25,0 -18.1934,-5.7129 -8.5254,-7.0752 -8.5254,-18.5449 z m 17.9297,-0.044 q 0,6.2403 2.5049,9.2285 2.5488,2.9883 6.3721,2.9883 3.8671,0 6.3281,-2.9443 2.5049,-2.9443 2.5049,-9.4483 0,-6.0644 -2.5049,-9.0087 -2.5049,-2.9883 -6.1963,-2.9883 -3.9111,0 -6.46,3.0322 -2.5488,2.9883 -2.5488,9.1406 z m 44.4727,-23.4228 h 16.7431 v 7.6465 q 2.417,-4.9659 4.9658,-6.8116 2.5928,-1.8896 6.3721,-1.8896 3.9551,0 8.6572,2.4609 l -5.5371,12.7442 q -3.164,-1.3184 -5.0097,-1.3184 -3.5157,0 -5.4493,2.9004 -2.7685,4.0869 -2.7685,15.293 V 1195 h -17.9736 z m 40.4296,-17.7539 h 17.8858 v 12.1728 h -17.8858 z m 0,17.7539 h 17.8858 V 1195 h -17.8858 z m 81.1231,27.7734 h -35.8594 q 0.4834,4.3067 2.3291,6.416 2.5928,3.0323 6.7676,3.0323 2.6367,0 5.0098,-1.3184 1.4502,-0.835 3.1201,-2.9443 l 17.622,1.6259 q -4.0429,7.0313 -9.7558,10.1075 -5.7129,3.0322 -16.3916,3.0322 -9.2725,0 -14.5899,-2.5928 -5.3173,-2.6367 -8.833,-8.3056 -3.4716,-5.7129 -3.4716,-13.4034 0,-10.9424 6.9873,-17.7099 7.0312,-6.7676 19.3798,-6.7676 10.0196,0 15.8204,3.0322 5.8007,3.0322 8.833,8.7891 3.0322,5.7568 3.0322,14.9853 z m -18.1934,-8.5693 q -0.5273,-5.1856 -2.8125,-7.4268 -2.2412,-2.2412 -5.9326,-2.2412 -4.2627,0 -6.8115,3.3838 -1.626,2.1094 -2.0654,6.2842 z m 23.2471,14.5459 17.7539,-1.6699 q 1.0986,3.164 3.0762,4.5263 1.9775,1.3623 5.2734,1.3623 3.6035,0 5.5811,-1.5381 1.5381,-1.1425 1.5381,-2.8564 0,-1.9336 -2.0215,-2.9883 -1.4502,-0.7471 -7.6905,-1.8457 -9.3164,-1.626 -12.9638,-2.9883 -3.6035,-1.4062 -6.1084,-4.7021 -2.461,-3.2959 -2.461,-7.5147 0,-4.6142 2.6807,-7.9541 2.6807,-3.3398 7.3828,-4.9658 4.7022,-1.6699 12.6123,-1.6699 8.3496,0 12.3047,1.2744 3.999,1.2744 6.6358,3.9551 2.6806,2.6806 4.4384,7.251 l -16.9629,1.6699 q -0.6591,-2.2412 -2.1972,-3.2959 -2.1094,-1.4063 -5.0977,-1.4063 -3.0322,0 -4.4385,1.0987 -1.3623,1.0547 -1.3623,2.5927 0,1.7139 1.7578,2.5928 1.7579,0.8789 7.6465,1.582 8.9209,1.0108 13.2715,2.8125 4.3506,1.8018 6.6358,5.1416 2.3291,3.3399 2.3291,7.3389 0,4.043 -2.461,7.8662 -2.417,3.8233 -7.6904,6.1084 -5.2295,2.2412 -14.2822,2.2412 -12.7881,0 -18.2373,-3.6474 -5.4053,-3.6475 -6.9434,-10.3711 z"
     id="text29"
     style="font-weight:800;font-size:90px;font-family:'Arial Black', 'Segoe UI', sans-serif;text-anchor:middle;opacity:0.64;fill:#800080;filter:url(#neonGlowBlur)"
     transform="matrix(0.05696555,0,0,0.05696555,30.646611,39.106216)"
     aria-label="Continue Your Saved Memories" /><path
     d="m 46.892361,105.68053 0.99384,0.30041 q -0.10013,0.41806 -0.31542,0.69844 -0.21529,0.28037 -0.53573,0.42306 -0.31792,0.1427 -0.81109,0.1427 -0.5983,0 -0.97881,-0.17274 -0.37801,-0.17523 -0.65338,-0.61332 -0.27537,-0.43809 -0.27537,-1.12151 0,-0.91123 0.48315,-1.39938 0.48565,-0.49066 1.37184,-0.49066 0.69344,0 1.08897,0.28037 0.39803,0.28038 0.59079,0.86116 l -1.00134,0.2228 q -0.0526,-0.16772 -0.11015,-0.24533 -0.0951,-0.13017 -0.23282,-0.20027 -0.13768,-0.0701 -0.30791,-0.0701 -0.38552,0 -0.5908,0.31042 -0.1552,0.23031 -0.1552,0.72347 0,0.61082 0.18524,0.83863 0.18525,0.2253 0.52071,0.2253 0.32543,0 0.49066,-0.18275 0.16772,-0.18274 0.24282,-0.53071 z m 1.35182,0.17774 q 0,-0.60832 0.41055,-1.00135 0.41056,-0.39553 1.109,-0.39553 0.79857,0 1.20662,0.46312 0.32794,0.37301 0.32794,0.91874 0,0.61333 -0.40805,1.00635 -0.40554,0.39053 -1.12401,0.39053 -0.64086,0 -1.03639,-0.32544 -0.48566,-0.40304 -0.48566,-1.05642 z m 1.02138,-0.002 q 0,0.35547 0.14269,0.5257 0.14519,0.17023 0.36299,0.17023 0.22029,0 0.36048,-0.16772 0.14269,-0.16773 0.14269,-0.53823 0,-0.34546 -0.14269,-0.51319 -0.14269,-0.17023 -0.35297,-0.17023 -0.2228,0 -0.368,0.17274 -0.14519,0.17022 -0.14519,0.5207 z m 2.52339,-1.3343 h 0.94878 v 0.43308 q 0.21279,-0.26535 0.43058,-0.37801 0.21779,-0.11515 0.53071,-0.11515 0.42307,0 0.66089,0.25284 0.24033,0.25034 0.24033,0.77604 v 1.68978 h -1.02388 v -1.46197 q 0,-0.25034 -0.0926,-0.35297 -0.0926,-0.10515 -0.26035,-0.10515 -0.18525,0 -0.3004,0.14019 -0.11516,0.14019 -0.11516,0.50318 v 1.27672 h -1.01887 z m 4.64876,-1.01136 v 1.01136 h 0.56075 v 0.7435 h -0.56075 v 0.94377 q 0,0.17023 0.0325,0.2253 0.0501,0.0851 0.17524,0.0851 0.11265,0 0.31542,-0.0651 l 0.0751,0.70345 q -0.378,0.0826 -0.70595,0.0826 -0.38051,0 -0.56075,-0.0976 -0.18024,-0.0976 -0.26786,-0.2954 -0.0851,-0.20027 -0.0851,-0.64587 v -0.93626 h -0.3755 v -0.7435 h 0.3755 v -0.48816 z m 1.08396,0 h 1.01887 v 0.69343 h -1.01887 z m 0,1.01136 h 1.01887 v 2.65858 h -1.01887 z m 1.66975,0 h 0.94877 v 0.43308 q 0.21279,-0.26535 0.43058,-0.37801 0.2178,-0.11515 0.53072,-0.11515 0.42307,0 0.66089,0.25284 0.24032,0.25034 0.24032,0.77604 v 1.68978 h -1.02388 v -1.46197 q 0,-0.25034 -0.0926,-0.35297 -0.0926,-0.10515 -0.26035,-0.10515 -0.18525,0 -0.30041,0.14019 -0.11515,0.14019 -0.11515,0.50318 v 1.27672 h -1.01887 z m 6.22087,2.65858 h -0.95128 v -0.43058 q -0.21279,0.26536 -0.43058,0.37801 -0.21529,0.11265 -0.53072,0.11265 -0.42056,0 -0.66089,-0.25034 -0.23782,-0.25284 -0.23782,-0.77604 v -1.69228 h 1.02388 v 1.46197 q 0,0.25034 0.0926,0.35548 0.0926,0.10514 0.26035,0.10514 0.18274,0 0.2979,-0.14019 0.11766,-0.14019 0.11766,-0.50318 v -1.27922 h 1.01887 z m 3.5698,-1.07645 h -2.04275 q 0.0275,0.24533 0.13268,0.36549 0.1477,0.17273 0.38552,0.17273 0.1502,0 0.28539,-0.0751 0.0826,-0.0476 0.17773,-0.16772 l 1.00386,0.0926 q -0.23031,0.40054 -0.55575,0.57578 -0.32544,0.17273 -0.93376,0.17273 -0.52821,0 -0.83112,-0.1477 -0.30291,-0.1502 -0.50317,-0.47314 -0.19777,-0.32543 -0.19777,-0.76352 0,-0.62334 0.39803,-1.00886 0.40054,-0.38552 1.10399,-0.38552 0.57077,0 0.90121,0.17273 0.33045,0.17273 0.50318,0.50068 0.17273,0.32794 0.17273,0.85365 z m -1.03639,-0.48816 q -0.03,-0.29539 -0.16022,-0.42307 -0.12767,-0.12767 -0.33795,-0.12767 -0.24283,0 -0.38802,0.19276 -0.0926,0.12016 -0.11766,0.35798 z m 2.91142,-2.10533 h 1.25919 l 0.741,1.23917 0.741,-1.23917 h 1.25168 l -1.42692,2.13287 v 1.53707 h -1.13653 v -1.53707 z m 3.73002,2.34816 q 0,-0.60832 0.41055,-1.00135 0.41055,-0.39553 1.10899,-0.39553 0.79858,0 1.20663,0.46312 0.32794,0.37301 0.32794,0.91874 0,0.61333 -0.40805,1.00635 -0.40555,0.39053 -1.12401,0.39053 -0.64087,0 -1.0364,-0.32544 -0.48565,-0.40304 -0.48565,-1.05642 z m 1.02137,-0.002 q 0,0.35547 0.14269,0.5257 0.1452,0.17023 0.36299,0.17023 0.2203,0 0.36049,-0.16772 0.14269,-0.16773 0.14269,-0.53823 0,-0.34546 -0.14269,-0.51319 -0.14269,-0.17023 -0.35298,-0.17023 -0.2228,0 -0.36799,0.17274 -0.1452,0.17022 -0.1452,0.5207 z m 5.32467,1.32428 h -0.95128 v -0.43058 q -0.21279,0.26536 -0.43058,0.37801 -0.21529,0.11265 -0.53072,0.11265 -0.42056,0 -0.66089,-0.25034 -0.23782,-0.25284 -0.23782,-0.77604 v -1.69228 h 1.02388 v 1.46197 q 0,0.25034 0.0926,0.35548 0.0926,0.10514 0.26035,0.10514 0.18274,0 0.2979,-0.14019 0.11766,-0.14019 0.11766,-0.50318 v -1.27922 h 1.01887 z m 0.62834,-2.65858 h 0.95379 v 0.43559 q 0.13768,-0.28288 0.28288,-0.38803 0.14769,-0.10764 0.36298,-0.10764 0.22531,0 0.49317,0.14019 l -0.31543,0.72598 q -0.18024,-0.0751 -0.28538,-0.0751 -0.20027,0 -0.31042,0.16523 -0.15771,0.23281 -0.15771,0.87117 v 0.8912 h -1.02388 z m 3.84518,1.44444 1.07895,-0.0676 q 0.035,0.26286 0.14269,0.40054 0.17524,0.2228 0.50068,0.2228 0.24282,0 0.373,-0.11265 0.13268,-0.11515 0.13268,-0.26536 0,-0.14269 -0.12517,-0.25534 -0.12517,-0.11265 -0.58078,-0.21279 -0.74601,-0.16772 -1.06393,-0.4456 -0.32044,-0.27787 -0.32044,-0.70845 0,-0.28288 0.16272,-0.53322 0.16523,-0.25284 0.49317,-0.39553 0.33044,-0.14519 0.90371,-0.14519 0.70345,0 1.07145,0.26285 0.37049,0.26035 0.44059,0.83112 l -1.06894,0.0626 q -0.0426,-0.24783 -0.18024,-0.36048 -0.13518,-0.11265 -0.37551,-0.11265 -0.19776,0 -0.2979,0.0851 -0.10013,0.0826 -0.10013,0.20277 0,0.0876 0.0826,0.15771 0.0801,0.0726 0.38051,0.13519 0.7435,0.16021 1.06393,0.32543 0.32294,0.16272 0.46813,0.40555 0.1477,0.24283 0.1477,0.54323 0,0.35298 -0.19526,0.65088 -0.19526,0.2979 -0.54574,0.45311 -0.35047,0.1527 -0.88369,0.1527 -0.93626,0 -1.29674,-0.36048 -0.36049,-0.36049 -0.40805,-0.91624 z m 4.76141,-0.58328 -0.97382,-0.10264 q 0.0551,-0.25534 0.15772,-0.40054 0.10514,-0.1477 0.3004,-0.25534 0.14019,-0.0776 0.38552,-0.12016 0.24533,-0.0426 0.53071,-0.0426 0.45812,0 0.73599,0.0526 0.27788,0.0501 0.46313,0.21279 0.13017,0.11265 0.20527,0.32043 0.0751,0.20527 0.0751,0.39303 v 1.17408 q 0,0.18775 0.0225,0.29539 0.025,0.10515 0.10514,0.27037 h -0.95629 q -0.0576,-0.10264 -0.0751,-0.15521 -0.0175,-0.0551 -0.035,-0.17023 -0.20027,0.19276 -0.39803,0.27537 -0.27037,0.11015 -0.62835,0.11015 -0.47564,0 -0.72347,-0.2203 -0.24533,-0.22029 -0.24533,-0.54323 0,-0.30291 0.17774,-0.49817 0.17774,-0.19526 0.65588,-0.29039 0.57327,-0.11515 0.7435,-0.16021 0.17023,-0.0476 0.36048,-0.12267 0,-0.18775 -0.0776,-0.26285 -0.0776,-0.0751 -0.27287,-0.0751 -0.25033,0 -0.3755,0.0801 -0.0976,0.0626 -0.15771,0.23532 z m 0.88368,0.53572 q -0.21028,0.0751 -0.43809,0.13268 -0.31041,0.0826 -0.39302,0.16272 -0.0851,0.0826 -0.0851,0.18775 0,0.12016 0.0826,0.19777 0.0851,0.0751 0.24784,0.0751 0.17023,0 0.31542,-0.0826 0.1477,-0.0826 0.20778,-0.20027 0.0626,-0.12016 0.0626,-0.31042 z m 1.21664,-1.39688 h 1.06143 l 0.5157,1.68477 0.53321,-1.68477 h 1.02889 l -1.12902,2.65858 h -0.90372 z m 6.25342,1.58213 h -2.04275 q 0.0275,0.24533 0.13268,0.36549 0.1477,0.17273 0.38552,0.17273 0.1502,0 0.28538,-0.0751 0.0826,-0.0476 0.17774,-0.16772 l 1.00385,0.0926 q -0.23031,0.40054 -0.55575,0.57578 -0.32544,0.17273 -0.93375,0.17273 -0.52822,0 -0.83112,-0.1477 -0.30291,-0.1502 -0.50318,-0.47314 -0.19777,-0.32543 -0.19777,-0.76352 0,-0.62334 0.39804,-1.00886 0.40054,-0.38552 1.10399,-0.38552 0.57076,0 0.90121,0.17273 0.33044,0.17273 0.50318,0.50068 0.17273,0.32794 0.17273,0.85365 z m -1.0364,-0.48816 q -0.03,-0.29539 -0.16021,-0.42307 -0.12767,-0.12767 -0.33796,-0.12767 -0.24282,0 -0.38802,0.19276 -0.0926,0.12016 -0.11766,0.35798 z m 4.303299,-2.10533 v 3.66994 h -0.95379 v -0.39303 q -0.20027,0.25034 -0.36549,0.33795 -0.22029,0.11516 -0.490659,0.11516 -0.54323,0 -0.83112,-0.41306 -0.28538,-0.41305 -0.28538,-1.00385 0,-0.66089 0.31542,-1.01136 0.31793,-0.35047 0.80609,-0.35047 0.237819,0 0.430579,0.0801 0.19526,0.0801 0.34546,0.24032 v -1.27171 z m -1.02138,2.33314 q 0,-0.31292 -0.13268,-0.46563 -0.13267,-0.15521 -0.33545,-0.15521 -0.17774,0 -0.2979,0.1477 -0.120159,0.1477 -0.120159,0.49567 0,0.32544 0.122669,0.47814 0.12516,0.15021 0.30791,0.15021 0.19526,0 0.32544,-0.15271 0.13017,-0.15271 0.13017,-0.49817 z m 3.40709,-2.33314 h 1.49201 l 0.57577,2.233 0.57327,-2.233 h 1.487 v 3.66994 h -0.92624 v -2.79877 l -0.71847,2.79877 h -0.83863 l -0.71596,-2.79877 v 2.79877 h -0.92875 z m 7.73541,2.59349 h -2.04275 q 0.0275,0.24533 0.13268,0.36549 0.1477,0.17273 0.38552,0.17273 0.1502,0 0.28538,-0.0751 0.0826,-0.0476 0.17774,-0.16772 l 1.00385,0.0926 q -0.23031,0.40054 -0.55575,0.57578 -0.32544,0.17273 -0.93375,0.17273 -0.52822,0 -0.83112,-0.1477 -0.30291,-0.1502 -0.50318,-0.47314 -0.19777,-0.32543 -0.19777,-0.76352 0,-0.62334 0.39804,-1.00886 0.40054,-0.38552 1.10398,-0.38552 0.57077,0 0.90122,0.17273 0.33044,0.17273 0.50317,0.50068 0.17274,0.32794 0.17274,0.85365 z m -1.0364,-0.48816 q -0.03,-0.29539 -0.16021,-0.42307 -0.12767,-0.12767 -0.33796,-0.12767 -0.24282,0 -0.38802,0.19276 -0.0926,0.12016 -0.11766,0.35798 z m 1.51204,-1.09397 h 0.95128 v 0.38802 q 0.20527,-0.24282 0.41305,-0.34546 0.21029,-0.10264 0.50568,-0.10264 0.31793,0 0.50318,0.11265 0.18525,0.11265 0.30291,0.33545 0.24032,-0.26035 0.43809,-0.35297 0.19776,-0.0951 0.48815,-0.0951 0.42808,0 0.6684,0.25534 0.24033,0.25284 0.24033,0.79357 v 1.66975 h -1.02138 v -1.51454 q 0,-0.18024 -0.0701,-0.26786 -0.10264,-0.13769 -0.25534,-0.13769 -0.18025,0 -0.2904,0.13018 -0.11014,0.13018 -0.11014,0.41806 v 1.37185 h -1.02138 v -1.46447 q 0,-0.17524 -0.02,-0.23782 -0.0325,-0.10014 -0.11265,-0.16022 -0.0801,-0.0626 -0.18775,-0.0626 -0.17524,0 -0.28789,0.13268 -0.11265,0.13268 -0.11265,0.43558 v 1.35683 h -1.02137 z m 4.99422,1.3368 q 0,-0.60832 0.41055,-1.00135 0.41055,-0.39553 1.10899,-0.39553 0.79858,0 1.20663,0.46312 0.32794,0.37301 0.32794,0.91874 0,0.61333 -0.40805,1.00635 -0.40555,0.39053 -1.12401,0.39053 -0.64087,0 -1.0364,-0.32544 -0.48565,-0.40304 -0.48565,-1.05642 z m 1.02137,-0.002 q 0,0.35547 0.14269,0.5257 0.1452,0.17023 0.36299,0.17023 0.2203,0 0.36049,-0.16772 0.14269,-0.16773 0.14269,-0.53823 0,-0.34546 -0.14269,-0.51319 -0.14269,-0.17023 -0.35298,-0.17023 -0.2228,0 -0.36799,0.17274 -0.1452,0.17022 -0.1452,0.5207 z m 2.53341,-1.3343 h 0.95378 v 0.43559 q 0.13769,-0.28288 0.28289,-0.38803 0.14769,-0.10764 0.36298,-0.10764 0.22531,0 0.49317,0.14019 l -0.31543,0.72598 q -0.18024,-0.0751 -0.28538,-0.0751 -0.20027,0 -0.31042,0.16523 -0.15771,0.23281 -0.15771,0.87117 v 0.8912 h -1.02388 z m 2.3031,-1.01136 h 1.01888 v 0.69343 h -1.01888 z m 0,1.01136 h 1.01888 v 2.65858 h -1.01888 z m 4.62122,1.58213 h -2.04274 q 0.0275,0.24533 0.13267,0.36549 0.1477,0.17273 0.38552,0.17273 0.1502,0 0.28539,-0.0751 0.0826,-0.0476 0.17774,-0.16772 l 1.00385,0.0926 q -0.23031,0.40054 -0.55575,0.57578 -0.32544,0.17273 -0.93376,0.17273 -0.52821,0 -0.83112,-0.1477 -0.3029,-0.1502 -0.50317,-0.47314 -0.19777,-0.32543 -0.19777,-0.76352 0,-0.62334 0.39804,-1.00886 0.40054,-0.38552 1.10398,-0.38552 0.57077,0 0.90121,0.17273 0.33045,0.17273 0.50318,0.50068 0.17273,0.32794 0.17273,0.85365 z m -1.03639,-0.48816 q -0.03,-0.29539 -0.16022,-0.42307 -0.12767,-0.12767 -0.33795,-0.12767 -0.24283,0 -0.38802,0.19276 -0.0926,0.12016 -0.11766,0.35798 z m 1.32428,0.82862 1.01136,-0.0951 q 0.0626,0.18024 0.17524,0.25785 0.11265,0.0776 0.3004,0.0776 0.20528,0 0.31793,-0.0876 0.0876,-0.0651 0.0876,-0.16272 0,-0.11014 -0.11516,-0.17022 -0.0826,-0.0426 -0.43809,-0.10515 -0.53071,-0.0926 -0.73849,-0.17022 -0.20528,-0.0801 -0.34797,-0.26787 -0.14019,-0.18775 -0.14019,-0.42807 0,-0.26286 0.15271,-0.45311 0.1527,-0.19026 0.42056,-0.28288 0.26786,-0.0951 0.71847,-0.0951 0.47564,0 0.70094,0.0726 0.22781,0.0726 0.37801,0.2253 0.15271,0.15271 0.25284,0.41306 l -0.9663,0.0951 q -0.0376,-0.12767 -0.12517,-0.18775 -0.12016,-0.0801 -0.29039,-0.0801 -0.17273,0 -0.25284,0.0626 -0.0776,0.0601 -0.0776,0.1477 0,0.0976 0.10013,0.1477 0.10014,0.0501 0.43559,0.0901 0.50818,0.0576 0.75602,0.16021 0.24783,0.10264 0.37801,0.2929 0.13267,0.19025 0.13267,0.41806 0,0.23031 -0.14018,0.4481 -0.13769,0.2178 -0.43809,0.34797 -0.2979,0.12767 -0.8136,0.12767 -0.72848,0 -1.0389,-0.20778 -0.30791,-0.20778 -0.39553,-0.59079 z"
     id="text30"
     style="font-weight:800;font-size:5.1269px;font-family:'Arial Black', 'Segoe UI', sans-serif;text-anchor:middle;fill:#ffffff;stroke-width:0.0569655"
     aria-label="Continue Your Saved Memories" /><g
     id="L3"
     transform="matrix(0.6819388,0,0,0.6819388,-28.191125,-9.261511)"
     style="display:inline"><circle
       style="fill:#093762;fill-opacity:1;stroke:#000000;stroke-width:0;stroke-linecap:butt;stroke-miterlimit:4.5;stroke-dasharray:none;stroke-opacity:1"
       id="circle1"
       cx="150.72964"
       cy="73.35141"
       r="12.6265" /><circle
       style="fill:#00ffff;fill-opacity:1;stroke:#000000;stroke-width:0;stroke-linecap:butt;stroke-miterlimit:4.5;stroke-dasharray:none;stroke-opacity:1"
       id="path1"
       cx="150.72964"
       cy="73.35141"
       r="8.3266735" /></g><path
     id="rect88"
     style="display:inline;fill:#e5066d;fill-opacity:1;stroke-width:0.126301;stroke-linecap:round;stroke-linejoin:round;stroke-miterlimit:4.5"
     d="m 87.417391,43.608635 0.68194,10e-7 v 5.45551 h -3.4097 z" /><path
     id="rect87"
     style="display:inline;fill:#df5d00;stroke-width:0.126301;stroke-linecap:round;stroke-linejoin:round;stroke-miterlimit:4.5"
     d="m 84.007701,49.064145 4.09163,10e-7 v 1.363877 c -3.41689,0.01128 -6.81939,2.045817 -6.81939,2.045817 z" /><path
     style="display:inline;fill:none;fill-opacity:1;stroke:#093762;stroke-width:2.72776;stroke-linecap:round;stroke-linejoin:round;stroke-miterlimit:4.5;stroke-dasharray:none;stroke-opacity:1"
     d="m 79.254721,17.442075 h 5.59332"
     id="path20" /><path
     style="display:inline;fill:none;fill-opacity:1;stroke:#093762;stroke-width:2.72773;stroke-linecap:butt;stroke-linejoin:round;stroke-miterlimit:4.5;stroke-dasharray:none;stroke-opacity:1"
     d="m 84.007701,27.242104 h 4.09168"
     id="path22" /><path
     id="rect37"
     style="display:inline;fill:#e5066d;stroke-width:0;stroke-linejoin:round;stroke-miterlimit:4.5"
     d="m 53.799911,61.815696 10.43156,-12.751551 4.77357,3.409694 -13.63877,17.730407 -7.84757,1.12769 z" /><path
     style="display:inline;fill:none;fill-opacity:1;stroke:#093762;stroke-width:2.72773;stroke-linecap:butt;stroke-linejoin:round;stroke-miterlimit:4.5;stroke-dasharray:none;stroke-opacity:1"
     d="m 69.229088,51.78515 c 0,0 -7.332902,10.985809 -11.563343,16.040333 -6.441656,7.696477 -23.431282,4.321166 -23.997213,-12.807168 -0.03024,-0.915441 0.182549,-2.377329 0.412677,-3.264037 1.455955,-5.609936 6.389783,-24.592805 9.343642,-35.616763 0.947581,-3.53642 4.363829,-6.6828697 7.900247,-7.6304503 3.973071,-1.0645821 13.48549,-2.0854009 20.16935,-2.1412039 h 16.604937"
     id="path29" /><path
     style="display:inline;fill:none;fill-opacity:1;stroke:#093762;stroke-width:2.72773;stroke-linecap:round;stroke-linejoin:round;stroke-miterlimit:4.5;stroke-dasharray:none;stroke-opacity:1"
     d="m 51.325098,8.5070647 c 0,-1.5402535 0.348198,-5.4451204 3.120552,-5.7700055 L 65.993152,1.3838375 c 2.07842,-0.2435646 5.208116,2.3270828 5.501296,4.9819974"
     id="path27" /><path
     style="display:inline;fill:none;fill-opacity:1;stroke:#093762;stroke-width:2.72773;stroke-linecap:butt;stroke-linejoin:round;stroke-miterlimit:4.5;stroke-dasharray:none;stroke-opacity:1"
     d="m 54.739552,62.887898 9.568925,-14.582219 c 1.514872,1.536871 3.18717,2.697799 4.920611,3.479471 6.917989,3.119581 14.809699,0.19862 17.554155,-8.973404 h 1.316142"
     id="path23" /><path
     style="baseline-shift:baseline;display:inline;overflow:visible;fill:#ff00ff;fill-opacity:1;stroke-width:0.682021;stroke-linecap:round;stroke-linejoin:round;stroke-miterlimit:4.5;stroke-dasharray:none;enable-background:accumulate;stop-color:#000000"
     d="m 45.234421,31.550839 c -0.44041,-0.369334 -1.26714,0.238311 -1.46157,0.965636 l -6.2875,22.892898 2.72509,0.135855 c 0,0 5.66108,-22.890884 5.02398,-23.994389 z"
     id="path24" /><path
     style="display:inline;fill:#ff00ff;fill-opacity:1;stroke:none;stroke-width:0.482263;stroke-linecap:round;stroke-linejoin:round;stroke-miterlimit:4.5;stroke-dasharray:none;stroke-opacity:1"
     d="m 52.929791,6.574796 c 0,-0.05944 0.11386,-0.432033 0.25303,-0.827989 0.24757,-0.704374 0.62111,-1.225039 1.04156,-1.451791 0.11557,-0.06233 2.90421,-0.431296 6.19698,-0.819923 5.69502,-0.672153 6.01399,-0.697015 6.5439,-0.510049 0.66512,0.234666 1.78158,1.052242 2.15712,1.579639 l 0.26957,0.378569 -0.67179,0.0684 c -0.36948,0.03762 -1.33203,0.10163 -2.13899,0.142246 -3.60498,0.181446 -9.5477,0.816236 -12.38629,1.323079 -0.6958,0.124238 -1.26509,0.177257 -1.26509,0.117819 z"
     id="path31" /><path
     style="baseline-shift:baseline;display:inline;overflow:visible;vector-effect:none;fill:#ff00ff;fill-opacity:1;stroke-width:0.681939;stroke-linejoin:round;stroke-miterlimit:4.5;enable-background:accumulate;stop-color:#000000"
     d="m 37.485351,55.409373 c -0.58453,11.727283 13.76779,15.102253 18.38571,8.240533 l -2.26291,-1.5237 c -2.81429,4.18171 -13.87338,2.96237 -13.39771,-6.580978 z"
     id="path32" /><g
     id="path33"
     style="display:inline"
     transform="matrix(0.6819388,0,0,0.6819388,-27.830266,-8.900652)"><path
       style="baseline-shift:baseline;display:inline;overflow:visible;vector-effect:none;fill:#093762;stroke-linejoin:round;stroke-miterlimit:4.5;enable-background:accumulate;stop-color:#000000;stop-opacity:1"
       d="M 116.36548,112.39172 135.39911,83.498483"
       id="path35" /><path
       style="baseline-shift:baseline;display:inline;overflow:visible;vector-effect:none;fill:#093762;stroke-linejoin:round;stroke-miterlimit:4.5;enable-background:accumulate;stop-color:#000000;stop-opacity:1"
       d="M 133.72852,82.398437 114.6711,111.34106 c 0,0 4.96028,-0.23123 8.06913,-4.95239 l 14.32813,-21.789061 z"
       id="path36" /></g><g
     id="g68"
     transform="matrix(-0.6819388,0,0,0.6819388,204.38984,-9.261511)"
     style="display:inline"><circle
       style="fill:#093762;fill-opacity:1;stroke:#000000;stroke-width:0;stroke-linecap:butt;stroke-miterlimit:4.5;stroke-dasharray:none;stroke-opacity:1"
       id="circle67"
       cx="150.72964"
       cy="73.35141"
       r="12.6265" /><circle
       style="fill:#df5d00;fill-opacity:1;stroke:#000000;stroke-width:0;stroke-linecap:butt;stroke-miterlimit:4.5;stroke-dasharray:none;stroke-opacity:1"
       id="circle68"
       cx="150.72964"
       cy="73.35141"
       r="8.3266735" /></g><path
     id="path88"
     style="display:inline;fill:#e5066d;fill-opacity:1;stroke-width:0.126301;stroke-linecap:round;stroke-linejoin:round;stroke-miterlimit:4.5"
     d="m 88.781271,43.608635 -0.77571,10e-7 v 5.45551 h 3.50346 z" /><path
     id="path89"
     style="display:inline;fill:#df5d00;stroke-width:0.126301;stroke-linecap:round;stroke-linejoin:round;stroke-miterlimit:4.5"
     d="m 92.190961,49.064145 -4.1854,10e-7 v 1.363877 c 3.40561,-0.01128 6.91316,2.045817 6.91316,2.045817 z" /><path
     style="display:inline;fill:none;fill-opacity:1;stroke:#093762;stroke-width:2.72776;stroke-linecap:round;stroke-linejoin:round;stroke-miterlimit:4.5;stroke-dasharray:none;stroke-opacity:1"
     d="m 96.943991,17.442075 h -5.59332"
     id="path68" /><path
     style="display:inline;fill:none;fill-opacity:1;stroke:#093762;stroke-width:2.72773;stroke-linecap:butt;stroke-linejoin:round;stroke-miterlimit:4.5;stroke-dasharray:none;stroke-opacity:1"
     d="m 92.191021,27.242104 h -4.18546"
     id="path69" /><path
     id="path70"
     style="display:inline;fill:#df5d00;fill-opacity:1;stroke-width:0;stroke-linejoin:round;stroke-miterlimit:4.5"
     d="m 122.39881,61.815696 -10.43157,-12.751551 -4.77357,3.409694 13.63878,17.730407 7.84756,1.12769 z" /><path
     style="display:inline;fill:none;fill-opacity:1;stroke:#093762;stroke-width:2.72773;stroke-linecap:butt;stroke-linejoin:round;stroke-miterlimit:4.5;stroke-dasharray:none;stroke-opacity:1"
     d="m 106.96963,51.78515 c 0,0 7.3329,10.985809 11.56334,16.040333 6.44165,7.696477 23.43128,4.321166 23.99721,-12.807168 0.0302,-0.915441 -0.18255,-2.377329 -0.41268,-3.264037 -1.45595,-5.609936 -6.38978,-24.592805 -9.34364,-35.616763 -0.94758,-3.53642 -4.36383,-6.6828697 -7.90024,-7.6304503 C 120.90054,7.4424826 111.38813,6.4216638 104.70427,6.3658608 H 87.825129"
     id="path71" /><path
     style="display:inline;fill:none;fill-opacity:1;stroke:#093762;stroke-width:2.72773;stroke-linecap:round;stroke-linejoin:round;stroke-miterlimit:4.5;stroke-dasharray:none;stroke-opacity:1"
     d="m 124.87362,8.5070647 c 0,-1.5402535 -0.3482,-5.4451204 -3.12056,-5.7700055 l -11.5475,-1.3532217 c -2.07842,-0.2435646 -5.20811,2.3270828 -5.50129,4.9819974"
     id="path72" /><path
     style="display:inline;fill:none;fill-opacity:1;stroke:#093762;stroke-width:2.72773;stroke-linecap:butt;stroke-linejoin:round;stroke-miterlimit:4.5;stroke-dasharray:none;stroke-opacity:1"
     d="m 121.45916,62.887898 -9.56892,-14.582219 c -1.51488,1.536871 -3.18717,2.697799 -4.92061,3.479471 -6.91799,3.119581 -14.809703,0.19862 -17.554159,-8.973404 h -1.590342"
     id="path73" /><path
     style="baseline-shift:baseline;display:inline;overflow:visible;fill:#ffb703;fill-opacity:1;stroke-width:0.682021;stroke-linecap:round;stroke-linejoin:round;stroke-miterlimit:4.5;stroke-dasharray:none;enable-background:accumulate;stop-color:#000000"
     d="m 130.9643,31.550839 c 0.4404,-0.369334 1.26714,0.238311 1.46156,0.965636 l 6.2875,22.892898 -2.72509,0.135855 c 0,0 -5.66108,-22.890884 -5.02397,-23.994389 z"
     id="path74" /><path
     style="display:inline;fill:#ffb703;fill-opacity:1;stroke:none;stroke-width:0.482263;stroke-linecap:round;stroke-linejoin:round;stroke-miterlimit:4.5;stroke-dasharray:none;stroke-opacity:1"
     d="m 123.26893,6.574796 c 0,-0.05944 -0.11387,-0.432033 -0.25304,-0.827989 -0.24756,-0.704374 -0.6211,-1.225039 -1.04156,-1.451791 -0.11557,-0.06233 -2.90421,-0.431296 -6.19697,-0.819923 -5.69503,-0.672153 -6.014,-0.697015 -6.54391,-0.510049 -0.66512,0.234666 -1.78158,1.052242 -2.15712,1.579639 l -0.26956,0.378569 0.67178,0.0684 c 0.36949,0.03762 1.33203,0.10163 2.13899,0.142246 3.60498,0.181446 9.54771,0.816236 12.3863,1.323079 0.6958,0.124238 1.26509,0.177257 1.26509,0.117819 z"
     id="path75" /><path
     style="baseline-shift:baseline;display:inline;overflow:visible;vector-effect:none;fill:#ffb703;fill-opacity:1;stroke-width:0.681939;stroke-linejoin:round;stroke-miterlimit:4.5;enable-background:accumulate;stop-color:#000000"
     d="m 138.71336,55.409373 c 0.58453,11.727283 -13.76779,15.102253 -18.38571,8.240533 l 2.26292,-1.5237 c 2.81428,4.18171 13.87337,2.96237 13.3977,-6.580978 z"
     id="path76" /><g
     id="g78"
     style="display:inline"
     transform="matrix(-0.6819388,0,0,0.6819388,204.02898,-8.900652)"><path
       style="baseline-shift:baseline;display:inline;overflow:visible;vector-effect:none;fill:#093762;stroke-linejoin:round;stroke-miterlimit:4.5;enable-background:accumulate;stop-color:#000000;stop-opacity:1"
       d="M 116.36548,112.39172 135.39911,83.498483"
       id="path77" /><path
       style="baseline-shift:baseline;display:inline;overflow:visible;vector-effect:none;fill:#093762;stroke-linejoin:round;stroke-miterlimit:4.5;enable-background:accumulate;stop-color:#000000;stop-opacity:1"
       d="M 133.72852,82.398437 114.6711,111.34106 c 0,0 4.96028,-0.23123 8.06913,-4.95239 l 14.32813,-21.789061 z"
       id="path78" /></g><g
     id="g11"
     transform="matrix(0.6819388,0,0,0.6819388,-27.830266,-8.825614)"
     style="display:inline"><rect
       style="fill:#093762;fill-opacity:1;stroke:#000000;stroke-width:0;stroke-linecap:butt;stroke-miterlimit:4.5;stroke-dasharray:none;stroke-opacity:1"
       id="rect8"
       width="12.881036"
       height="33.49995"
       x="122.00185"
       y="33.133842"
       ry="2.6458333"
       rx="2.6458333" /><rect
       style="fill:#093762;fill-opacity:1;stroke:#000000;stroke-width:0;stroke-linecap:butt;stroke-miterlimit:4.5;stroke-dasharray:none;stroke-opacity:1"
       id="rect10"
       width="12.881036"
       height="33.49995"
       x="43.443298"
       y="-145.19234"
       ry="2.6458333"
       rx="2.6458333"
       transform="rotate(90)" /><rect
       style="opacity:1;fill:#00ffff;fill-opacity:1;stroke:#000000;stroke-width:0;stroke-linecap:butt;stroke-miterlimit:4.5;stroke-dasharray:none;stroke-opacity:1"
       id="rect9"
       width="5.6601353"
       height="25.958574"
       x="125.6123"
       y="36.90453" /><rect
       style="opacity:1;fill:#00ffff;fill-opacity:1;stroke:#000000;stroke-width:0;stroke-linecap:butt;stroke-miterlimit:4.5;stroke-dasharray:none;stroke-opacity:1"
       id="rect11"
       width="5.6601353"
       height="25.958574"
       x="47.053749"
       y="-141.42165"
       transform="rotate(90)" /></g><g
     id="g8"
     transform="matrix(0.42543537,0,0,0.42543537,43.914101,-6.176126)"
     style="display:inline"><g
       id="g2"
       transform="translate(40.999435,0.38115592)"><circle
         style="fill:#093762;fill-opacity:1;stroke:#000000;stroke-width:0;stroke-linecap:butt;stroke-miterlimit:4.5;stroke-dasharray:none;stroke-opacity:1"
         id="circle1-5"
         cx="150.72964"
         cy="73.35141"
         r="12.6265" /><circle
         style="fill:#c1121f;fill-opacity:1;stroke:#000000;stroke-width:0;stroke-linecap:butt;stroke-miterlimit:4.5;stroke-dasharray:none;stroke-opacity:1"
         id="path1-1"
         cx="150.72964"
         cy="73.35141"
         r="8.3266735" /></g><g
       id="g3"
       transform="translate(-0.67648062,0.38115592)"><circle
         style="fill:#093762;fill-opacity:1;stroke:#000000;stroke-width:0;stroke-linecap:butt;stroke-miterlimit:4.5;stroke-dasharray:none;stroke-opacity:1"
         id="circle2"
         cx="150.72964"
         cy="73.35141"
         r="12.6265" /><circle
         style="fill:#457b9d;fill-opacity:1;stroke:#000000;stroke-width:0;stroke-linecap:butt;stroke-miterlimit:4.5;stroke-dasharray:none;stroke-opacity:1"
         id="circle3"
         cx="150.72964"
         cy="73.35141"
         r="8.3266735" /></g><g
       id="g5"
       transform="translate(20.161477,-20.457314)"><circle
         style="fill:#093762;fill-opacity:1;stroke:#000000;stroke-width:0;stroke-linecap:butt;stroke-miterlimit:4.5;stroke-dasharray:none;stroke-opacity:1"
         id="circle4"
         cx="150.72964"
         cy="73.35141"
         r="12.6265" /><circle
         style="fill:#f4a261;fill-opacity:1;stroke:#000000;stroke-width:0;stroke-linecap:butt;stroke-miterlimit:4.5;stroke-dasharray:none;stroke-opacity:1"
         id="circle5"
         cx="150.72964"
         cy="73.35141"
         r="8.3266735" /></g><g
       id="g7"
       transform="translate(20.161477,21.218603)"><circle
         style="fill:#093762;fill-opacity:1;stroke:#000000;stroke-width:0;stroke-linecap:butt;stroke-miterlimit:4.5;stroke-dasharray:none;stroke-opacity:1"
         id="circle6"
         cx="150.72964"
         cy="73.35141"
         r="12.6265" /><circle
         style="fill:#386641;fill-opacity:1;stroke:#000000;stroke-width:0;stroke-linecap:butt;stroke-miterlimit:4.5;stroke-dasharray:none;stroke-opacity:1"
         id="circle7"
         cx="150.72964"
         cy="73.35141"
         r="8.3266735" /></g></g><path
     id="text7"
     style="font-size:53.3333px;font-family:'Press Start 2P';-inkscape-font-specification:'Press Start 2P';white-space:pre;fill:#0dc0e8;fill-opacity:1;stroke:#fe4292;stroke-width:0.558888;stroke-dasharray:none;stroke-opacity:1"
     d="m 0.279444,74.902136 v 20.64173 h 3.392892 v -5.89735 h 1.696441 v 2.94898 h 1.696445 v 2.94837 h 5.08934 v -2.94837 h -1.696449 v -2.94898 H 8.761668 v -2.94901 h 3.392894 v -8.84636 H 8.761668 v -2.94901 z m 32.231897,0 v 5.89739 h -3.39289 v 2.94897 h 3.39289 v 11.79537 h 3.39289 v -11.79537 h 3.39289 v -2.94897 h -3.39289 v -5.89739 z m 49.1958,0 v 20.64173 h 3.39289 v -5.89735 h 5.07698 v -2.94901 h 3.40524 v -8.84636 h -3.39289 v -2.94901 z m 67.856689,0 v 17.69336 h 3.3843 v 2.94837 h 5.09793 v -2.94837 h 3.3929 v -17.69336 h -3.3929 v 17.69336 h -5.08935 v -17.69336 z m 15.268,0 v 2.94901 h 3.39289 v 14.74435 h -3.39289 v 2.94837 h 10.17813 v -2.94837 h -3.39237 v -14.74435 h 3.39237 v -2.94901 z M 3.672336,77.851146 h 5.089332 v 8.84636 H 3.672336 Z m 81.427695,0 h 5.08933 v 8.84636 h -5.08933 z m -67.856685,2.94838 v 2.94897 h -3.39235 v 8.847 h 3.39235 v 2.94837 h 6.785775 v -2.94837 h -6.785775 v -2.94898 h 8.482205 v -5.89802 h -3.39288 v -2.94897 z m 25.446665,0 v 14.74434 h 3.39289 v -8.84636 h 1.69588 v -2.94901 h -1.69588 v -2.94897 z m 5.08877,2.94897 h 5.08934 v -2.94897 h -5.08934 z m 10.17868,-2.94897 v 2.94897 h -3.39289 v 8.847 h 3.39289 v 2.94837 h 5.08934 v -2.94837 h 3.39289 v -8.847 h -3.39289 v -2.94897 z m 39.01768,0 v 2.94897 h 6.785769 v 2.94901 h -6.785769 v 2.94901 h -1.69644 v 2.94898 h 1.69644 v 2.94837 h 10.178669 v -11.79537 h -3.3929 v -2.94897 z m 11.875099,0 v 14.74434 h 3.39235 v -11.79537 h 5.08934 v 11.79537 h 3.39289 v -11.79537 h -3.39289 v -2.94897 z m 16.9639,0 v 2.94897 h -3.39286 v 5.89802 h 3.39286 v 2.94898 h 5.08934 v 2.94837 h -6.78577 v 2.94901 h 6.78577 v -2.94901 h 3.39289 v -14.74434 z m -108.570794,2.94897 h 5.089325 v 2.94901 h -5.089325 z m 40.714115,0 h 5.08934 v 8.847 h -5.08934 z m 67.856679,0 h 5.08934 v 5.89802 h -5.08934 z m -28.838999,5.89802 h 6.785769 v 2.94898 h -6.785769 z" /><path
     style="fill:#ffffff;stroke-width:0.499999"
     d="m 44.67864,69.521579 c -5.639544,-1.939615 -9.399815,-7.667548 -9.416844,-14.344454 -0.0053,-2.069933 0.01497,-2.154465 5.721358,-23.86317 2.608217,-9.922425 4.334669,-16.008985 4.738161,-16.704265 0.797184,-1.373677 2.927461,-3.306191 4.410752,-4.001288 1.371859,-0.6428794 4.112847,-1.2473227 8.011594,-1.7667209 6.588331,-0.8777102 10.632866,-0.9856179 32.543749,-0.8682593 22.62799,0.1212003 23.89247,0.178353 30.9243,1.3977461 4.23353,0.7341371 6.68094,2.0867181 8.46175,4.6764651 0.86265,1.254517 1.29644,2.679094 4.41175,14.488197 6.7158,25.457377 6.67281,25.274796 6.46942,27.481696 -0.62899,6.824647 -4.01233,11.633327 -9.5178,13.527487 -0.8479,0.291719 -1.96948,0.528259 -2.4924,0.525645 -0.84643,-0.0042 -1.04514,-0.149074 -1.81067,-1.319842 -0.47294,-0.723299 -0.85989,-1.376005 -0.85989,-1.450456 0,-0.07445 0.77766,-0.135364 1.72814,-0.135364 4.12186,0 8.1271,-2.530255 9.80429,-6.193742 0.34307,-0.749353 0.74286,-2.202233 0.88843,-3.228623 0.30051,-2.118916 0.65461,-0.532921 -3.53764,-15.845343 -1.39442,-5.093229 -2.65135,-9.528307 -2.79318,-9.855729 -0.17397,-0.40164 -0.48482,-0.595312 -0.95548,-0.595312 -0.69392,0 -0.69666,0.0081 -0.51617,1.521354 0.23696,1.986833 1.67089,8.735864 3.46838,16.324519 0.79103,3.339555 1.43823,6.639073 1.43823,7.332263 0,2.81337 -1.75387,5.553673 -4.37923,6.842244 -1.07188,0.526097 -1.71714,0.643236 -3.55827,0.645972 -3.78739,0.0056 -3.65304,0.131085 -9.71012,-9.067702 -2.84507,-4.320767 -5.30677,-7.943416 -5.47043,-8.050329 -0.63512,-0.41488 -1.35053,-0.158422 -2.6503,0.950077 -5.20752,4.441182 -11.054642,4.70101 -15.350822,0.682146 -1.629344,-1.524172 -2.930271,-3.558516 -3.583789,-5.604203 -0.174186,-0.545251 -0.572209,-1.170329 -0.884492,-1.389063 -0.700786,-0.49085 -3.608102,-0.537022 -4.216701,-0.06697 -0.235517,0.181901 -0.733208,1.092166 -1.105985,2.022811 -1.805453,4.507352 -4.574217,6.969747 -8.689533,7.728024 -3.154053,0.581157 -6.755278,-0.6032 -9.841233,-3.236547 -1.597893,-1.363536 -2.447221,-1.588966 -3.111066,-0.825746 -0.221504,0.254661 -2.461281,3.618177 -4.977281,7.474479 -2.515999,3.856302 -4.941096,7.403235 -5.389104,7.882072 -1.604325,1.714728 -5.190837,2.102482 -7.996026,0.864486 -2.448163,-1.080431 -4.045447,-3.271676 -4.46868,-6.130387 -0.147029,-0.993106 0.14228,-2.596994 1.55399,-8.61513 2.119247,-9.034372 3.336214,-14.971905 3.339272,-16.292187 0.0019,-0.795046 -0.09641,-0.992187 -0.494472,-0.992187 -0.273222,0 -0.625869,0.155556 -0.783658,0.345681 -0.15779,0.190124 -1.730989,5.577705 -3.495996,11.972395 -3.069433,11.120678 -3.203151,11.710707 -3.072328,13.556504 0.270068,3.810373 2.632853,7.188647 6.192978,8.854633 1.455626,0.68117 2.197163,0.85245 4.080385,0.942488 l 2.301476,0.110035 -0.945296,1.423715 c -0.85625,1.289606 -1.035224,1.422879 -1.90002,1.414854 -0.5251,-0.0049 -1.656175,-0.250113 -2.513499,-0.544973 z M 77.777096,48.865717 c 1.075489,-0.402391 1.968812,-1.011676 3.010268,-2.053132 1.812808,-1.812808 2.482762,-3.508206 2.475672,-6.264976 -0.0088,-3.403605 -1.887699,-6.239362 -5.131261,-7.74424 -1.954001,-0.906577 -5.073986,-0.957289 -6.937719,-0.112768 -1.673743,0.75843 -3.559841,2.551149 -4.386143,4.168981 -0.897903,1.758029 -1.118314,4.782031 -0.487069,6.682531 1.550728,4.668808 6.749502,7.084626 11.456252,5.323604 z m 26.989454,0.01011 c 1.10932,-0.407196 1.94025,-0.977238 3.01543,-2.068681 1.81384,-1.841275 2.4756,-3.519313 2.46856,-6.259539 -0.009,-3.403605 -1.8877,-6.239362 -5.13127,-7.744241 -1.954,-0.906576 -5.07398,-0.957288 -6.937714,-0.112768 -1.673744,0.758431 -3.559842,2.55115 -4.386143,4.168982 -0.879835,1.722654 -1.12081,4.812326 -0.514184,6.592675 1.624582,4.767885 6.718491,7.17332 11.485321,5.423572 z m 13.46287,-9.617125 c 1.41324,-0.419687 2.65257,-1.518261 3.41281,-3.025182 0.68939,-1.366499 0.45818,-3.874074 -0.4892,-5.305663 -0.86788,-1.311463 -2.91336,-2.385499 -4.55065,-2.389444 -1.5358,-0.0037 -3.70167,1.149448 -4.54095,2.417688 -0.7342,1.109451 -1.05183,3.003505 -0.7624,4.546291 0.25863,1.378587 2.06003,3.26939 3.55238,3.728683 1.59574,0.491111 1.81135,0.492873 3.37801,0.02763 z M 63.711936,36.08848 c 0.611127,-0.611124 0.649433,-0.821811 0.649433,-3.571875 v -2.922442 h 2.955729 c 4.027647,0 3.923438,0.116531 3.923438,-4.387429 0,-3.478567 -0.0066,-3.516831 -0.69714,-4.060034 -0.603435,-0.474662 -1.065758,-0.54837 -3.439584,-0.54837 h -2.742443 v -2.742443 c 0,-2.373826 -0.07371,-2.836148 -0.54837,-3.439583 -0.542549,-0.68974 -0.585158,-0.69714 -4.014062,-0.69714 -4.549183,0 -4.433401,-0.101264 -4.433401,3.877466 v 3.0017 h -2.922445 c -2.75006,0 -2.960748,0.03831 -3.571875,0.649431 -0.620498,0.6205 -0.64943,0.797314 -0.64943,3.96875 0,4.419348 -0.03906,4.377652 4.101042,4.377652 h 3.042708 v 3.159999 c 0,4.061457 -0.08654,3.983751 4.436523,3.983751 3.10893,0 3.290625,-0.03018 3.909877,-0.649433 z m 46.292324,-5.929426 c 5.3471,-2.429134 3.624,-10.354474 -2.25122,-10.354474 -2.7971,0 -5.02756,1.89456 -5.43585,4.617236 -0.48027,3.202689 2.15623,6.21906 5.43585,6.21906 0.65484,0 1.66789,-0.21682 2.25122,-0.481822 z m 17.72709,0 c 5.34709,-2.429134 3.62399,-10.354474 -2.25123,-10.354474 -2.7971,0 -5.02755,1.89456 -5.43584,4.617236 -0.48028,3.202689 2.15622,6.21906 5.43584,6.21906 0.65484,0 1.66789,-0.21682 2.25123,-0.481822 z M 92.407202,27.212913 v -1.587499 h -4.233333 -4.233333 v 1.587499 1.5875 h 4.233333 4.233333 z m 25.822218,-5.681292 c 1.41324,-0.419687 2.65257,-1.518261 3.41281,-3.025182 0.68939,-1.366499 0.45818,-3.874074 -0.4892,-5.305663 -0.86788,-1.311463 -2.91336,-2.385499 -4.55065,-2.389444 -1.55031,-0.0037 -3.70134,1.148956 -4.55706,2.442027 -0.96217,1.453939 -1.13354,3.908574 -0.37577,5.382401 0.73961,1.438492 1.89675,2.463765 3.26081,2.88921 1.50479,0.469339 1.73943,0.46981 3.29906,0.0066 z M 85.748616,18.588539 c 0.830678,-0.581832 0.705945,-1.945796 -0.22058,-2.412044 -1.011513,-0.509019 -6.332845,-0.455531 -7.084878,0.07121 -0.788085,0.551995 -0.788085,1.799251 0,2.351246 0.85467,0.598633 6.447301,0.590662 7.305458,-0.01042 z m 12.214836,-0.106875 c 0.62279,-0.62279 0.674063,-1.287913 0.154173,-1.999951 -0.330068,-0.452057 -0.772756,-0.524079 -3.694814,-0.601115 -3.274414,-0.08633 -3.32922,-0.07813 -4.007061,0.599715 -0.504333,0.504333 -0.640551,0.844513 -0.511805,1.278152 0.327498,1.103069 0.83697,1.252365 4.273619,1.252365 2.903945,0 3.314043,-0.05732 3.785888,-0.529166 z"
     id="path2" /></svg>
