<?xml version="1.0" encoding="UTF-8" standalone="no"?>
<svg
   width="70"
   height="32"
   viewBox="0 0 70 32"
   version="1.1"
   id="svg1"
   xmlns="http://www.w3.org/2000/svg"
   xmlns:svg="http://www.w3.org/2000/svg">
  <defs
     id="defs1" />
  <path
     id="pillshape" fill="#fff"
     d="M 16 2 A 14 14 0 0 0 2 16 A 14 14 0 0 0 16 30 L 54 30 A 14 14 0 0 0 68 16 A 14 14 0 0 0 54 2 L 16 2 z M 19.625 10.447266 C 20.542383 10.447266 21.447526 10.71556 22.339844 11.251953 L 21.535156 13.183594 C 21.50508 13.168553 21.426109 13.129621 21.300781 13.064453 C 21.175456 12.994271 21.095637 12.950587 21.060547 12.935547 C 21.025455 12.915496 20.952083 12.880209 20.841797 12.830078 C 20.731511 12.774935 20.654492 12.738802 20.609375 12.71875 L 20.40625 12.642578 C 20.185677 12.557356 19.973112 12.515625 19.767578 12.515625 C 19.567057 12.515625 19.407422 12.607487 19.287109 12.792969 C 19.17181 12.973438 19.113281 13.194402 19.113281 13.455078 C 19.113281 13.710743 19.145768 13.923307 19.210938 14.09375 C 19.276106 14.264193 19.376367 14.422982 19.511719 14.568359 C 19.742318 14.808984 20.025456 15.039193 20.361328 15.259766 C 21.02806 15.710938 21.529362 16.186198 21.865234 16.6875 C 22.20612 17.183789 22.376953 17.782552 22.376953 18.484375 C 22.376953 19.532096 22.096614 20.336979 21.535156 20.898438 C 20.973698 21.454883 20.174414 21.734375 19.136719 21.734375 C 18.104036 21.734375 17.201693 21.516211 16.429688 21.080078 L 16.429688 18.613281 C 17.522526 19.330144 18.360742 19.6875 18.947266 19.6875 C 19.212956 19.6875 19.416276 19.601237 19.556641 19.425781 C 19.697005 19.245313 19.767578 19.027148 19.767578 18.771484 C 19.767578 18.510808 19.729492 18.289844 19.654297 18.109375 C 19.579102 17.923893 19.469596 17.75306 19.324219 17.597656 C 19.178841 17.442253 19.040494 17.315104 18.910156 17.214844 C 18.784831 17.10957 18.626042 16.988867 18.435547 16.853516 C 17.778841 16.392317 17.294336 15.905859 16.978516 15.394531 C 16.667708 14.883203 16.511719 14.278841 16.511719 13.582031 C 16.511719 12.619531 16.800456 11.858334 17.376953 11.296875 C 17.958463 10.730404 18.707617 10.447266 19.625 10.447266 z M 32.769531 10.552734 L 36.025391 10.552734 L 38.761719 21.591797 L 36.115234 21.591797 L 35.505859 18.898438 L 33.287109 18.898438 L 32.677734 21.591797 L 30.039062 21.591797 L 32.769531 10.552734 z M 23.113281 10.597656 L 29.820312 10.597656 L 29.820312 12.666016 L 27.775391 12.666016 L 27.775391 21.591797 L 25.158203 21.591797 L 25.158203 12.666016 L 23.113281 12.666016 L 23.113281 10.597656 z M 39.798828 10.597656 L 42.716797 10.597656 C 43.924935 10.597656 44.818035 10.869597 45.394531 11.416016 C 45.971029 11.962435 46.257812 12.799804 46.257812 13.927734 C 46.257812 15.236132 45.80944 16.18776 44.912109 16.779297 L 47.017578 21.591797 L 44.244141 21.591797 L 42.558594 17.439453 L 42.423828 17.439453 L 42.423828 21.591797 L 39.798828 21.591797 L 39.798828 10.597656 z M 47.056641 10.597656 L 53.763672 10.597656 L 53.763672 12.666016 L 51.71875 12.666016 L 51.71875 21.591797 L 49.101562 21.591797 L 49.101562 12.666016 L 47.056641 12.666016 L 47.056641 10.597656 z M 42.423828 12.634766 L 42.423828 15.410156 L 42.619141 15.410156 C 42.965038 15.410156 43.21569 15.292252 43.371094 15.056641 C 43.53151 14.821028 43.611328 14.464518 43.611328 13.988281 C 43.611328 13.507031 43.52871 13.161718 43.363281 12.951172 C 43.202865 12.740625 42.949414 12.634766 42.603516 12.634766 L 42.423828 12.634766 z M 34.400391 13.921875 C 34.320183 14.307878 34.107617 15.272395 33.761719 16.816406 L 35.054688 16.816406 L 34.400391 13.921875 z " />
  <g
     id="lettersgroup"
     transform="translate(10.456,-0.844) scale(0.77)" />
</svg>
