<?xml version="1.0" encoding="UTF-8" standalone="no"?>
<svg
   width="75"
   height="32"
   viewBox="0 0 75 32"
   version="1.1"
   id="svg1"
   xmlns="http://www.w3.org/2000/svg"
   xmlns:svg="http://www.w3.org/2000/svg">
  <defs
     id="defs1" />
  <path
     id="pillshape" fill="#fff"
     d="M 16 2 A 14 14 0 0 0 2 16 A 14 14 0 0 0 16 30 L 59 30 A 14 14 0 0 0 73 16 A 14 14 0 0 0 59 2 L 16 2 z M 19.480469 10.447266 C 20.397852 10.447266 21.301042 10.71556 22.193359 11.251953 L 21.390625 13.183594 C 21.360549 13.168553 21.281578 13.129621 21.15625 13.064453 C 21.030924 12.994271 20.951107 12.950587 20.916016 12.935547 C 20.880924 12.915496 20.807552 12.880209 20.697266 12.830078 C 20.586979 12.774935 20.509961 12.738802 20.464844 12.71875 L 20.261719 12.642578 C 20.041146 12.557356 19.828581 12.515625 19.623047 12.515625 C 19.422526 12.515625 19.260937 12.607487 19.140625 12.792969 C 19.025326 12.973438 18.96875 13.194402 18.96875 13.455078 C 18.96875 13.710743 19.001237 13.923307 19.066406 14.09375 C 19.131576 14.264193 19.231836 14.422982 19.367188 14.568359 C 19.597786 14.808984 19.880924 15.039193 20.216797 15.259766 C 20.883528 15.710938 21.384831 16.186198 21.720703 16.6875 C 22.061588 17.183789 22.232422 17.782552 22.232422 18.484375 C 22.232422 19.532096 21.952084 20.336979 21.390625 20.898438 C 20.829167 21.454883 20.02793 21.734375 18.990234 21.734375 C 17.957552 21.734375 17.055208 21.516211 16.283203 21.080078 L 16.283203 18.613281 C 17.376042 19.330144 18.216211 19.6875 18.802734 19.6875 C 19.068424 19.6875 19.271745 19.601237 19.412109 19.425781 C 19.552474 19.245313 19.623047 19.027148 19.623047 18.771484 C 19.623047 18.510808 19.584961 18.289844 19.509766 18.109375 C 19.43457 17.923893 19.325065 17.75306 19.179688 17.597656 C 19.03431 17.442253 18.895964 17.315104 18.765625 17.214844 C 18.640299 17.10957 18.48151 16.988867 18.291016 16.853516 C 17.63431 16.392317 17.147852 15.905859 16.832031 15.394531 C 16.521224 14.883203 16.367188 14.278841 16.367188 13.582031 C 16.367188 12.619531 16.653971 11.858334 17.230469 11.296875 C 17.811979 10.730404 18.563086 10.447266 19.480469 10.447266 z M 48.904297 10.447266 C 49.345443 10.447266 49.767773 10.512239 50.173828 10.642578 C 50.584896 10.772917 51.029623 10.991081 51.505859 11.296875 L 50.753906 13.154297 C 50.713799 13.114191 50.616338 13.049216 50.460938 12.958984 C 50.305533 12.863737 50.161589 12.787565 50.03125 12.732422 C 49.685351 12.577018 49.363281 12.5 49.0625 12.5 C 48.766731 12.5 48.522526 12.588216 48.332031 12.763672 C 48.141536 12.934114 47.993946 13.14388 47.888672 13.394531 C 47.783398 13.645182 47.700781 13.945964 47.640625 14.296875 C 47.535351 14.863346 47.482422 15.473307 47.482422 16.125 C 47.482422 18.491146 48.02181 19.673828 49.099609 19.673828 C 49.570833 19.673828 50.269857 19.408333 51.197266 18.876953 L 51.197266 21.09375 C 50.54056 21.519857 49.765364 21.734375 48.873047 21.734375 C 48.266471 21.734375 47.726237 21.631315 47.25 21.425781 C 46.778776 21.215234 46.392578 20.935742 46.091797 20.589844 C 45.791016 20.243944 45.543164 19.827214 45.347656 19.335938 C 44.991731 18.44362 44.8125 17.367644 44.8125 16.109375 C 44.8125 15.116796 44.938802 14.202408 45.189453 13.365234 C 45.440104 12.518033 45.865234 11.819856 46.466797 11.273438 C 47.088411 10.722005 47.901693 10.447266 48.904297 10.447266 z M 23.773438 10.597656 L 29.224609 10.597656 L 29.224609 12.634766 L 26.404297 12.634766 L 26.404297 14.853516 L 29.021484 14.853516 L 29.021484 16.898438 L 26.404297 16.898438 L 26.404297 19.53125 L 29.224609 19.53125 L 29.224609 21.591797 L 23.773438 21.591797 L 23.773438 10.597656 z M 30.992188 10.597656 L 33.623047 10.597656 L 33.623047 19.53125 L 36.376953 19.53125 L 36.376953 21.591797 L 30.992188 21.591797 L 30.992188 10.597656 z M 38 10.597656 L 43.451172 10.597656 L 43.451172 12.634766 L 40.632812 12.634766 L 40.632812 14.853516 L 43.248047 14.853516 L 43.248047 16.898438 L 40.632812 16.898438 L 40.632812 19.53125 L 43.451172 19.53125 L 43.451172 21.591797 L 38 21.591797 L 38 10.597656 z M 52.205078 10.597656 L 58.912109 10.597656 L 58.912109 12.666016 L 56.867188 12.666016 L 56.867188 21.591797 L 54.25 21.591797 L 54.25 12.666016 L 52.205078 12.666016 L 52.205078 10.597656 z " />
  <g
     id="lettersgroup"
     transform="translate(12.958,-0.844) scale(0.77)" />
</svg>
