<?xml version="1.0" encoding="UTF-8" standalone="no"?>
<svg
   width="90"
   height="32"
   viewBox="0 0 90 32"
   version="1.1"
   id="svg1"
   xmlns="http://www.w3.org/2000/svg"
   xmlns:svg="http://www.w3.org/2000/svg">
  <defs
     id="defs1" />
  <path
     id="pillshape" fill="#fff"
     d="M 16 2 A 14 14 0 0 0 2 16 A 14 14 0 0 0 16 30 L 74 30 A 14 14 0 0 0 88 16 A 14 14 0 0 0 74 2 L 16 2 z M 29.625 10.447266 C 30.542383 10.447266 31.447526 10.71556 32.339844 11.251953 L 31.535156 13.183594 C 31.50508 13.168553 31.426109 13.129621 31.300781 13.064453 C 31.175456 12.994271 31.095637 12.950587 31.060547 12.935547 C 31.025455 12.915496 30.952083 12.880209 30.841797 12.830078 C 30.731511 12.774935 30.654492 12.738802 30.609375 12.71875 L 30.40625 12.642578 C 30.185677 12.557356 29.973112 12.515625 29.767578 12.515625 C 29.567057 12.515625 29.407422 12.607487 29.287109 12.792969 C 29.17181 12.973438 29.113281 13.194402 29.113281 13.455078 C 29.113281 13.710743 29.145768 13.923307 29.210938 14.09375 C 29.276106 14.264193 29.376367 14.422982 29.511719 14.568359 C 29.742318 14.808984 30.025455 15.039193 30.361328 15.259766 C 31.02806 15.710938 31.529361 16.186198 31.865234 16.6875 C 32.206119 17.183789 32.376953 17.782552 32.376953 18.484375 C 32.376953 19.532096 32.096614 20.336979 31.535156 20.898438 C 30.973698 21.454883 30.174414 21.734375 29.136719 21.734375 C 28.104036 21.734375 27.201693 21.516211 26.429688 21.080078 L 26.429688 18.613281 C 27.522526 19.330144 28.360742 19.6875 28.947266 19.6875 C 29.212956 19.6875 29.416276 19.601237 29.556641 19.425781 C 29.697005 19.245313 29.767578 19.027148 29.767578 18.771484 C 29.767578 18.510808 29.729492 18.289844 29.654297 18.109375 C 29.579102 17.923893 29.469596 17.75306 29.324219 17.597656 C 29.178841 17.442253 29.040494 17.315104 28.910156 17.214844 C 28.784831 17.10957 28.626042 16.988867 28.435547 16.853516 C 27.778841 16.392317 27.294336 15.905859 26.978516 15.394531 C 26.667708 14.883203 26.511719 14.278841 26.511719 13.582031 C 26.511719 12.619531 26.800456 11.858334 27.376953 11.296875 C 27.958463 10.730404 28.707617 10.447266 29.625 10.447266 z M 42.769531 10.552734 L 46.025391 10.552734 L 48.761719 21.591797 L 46.115234 21.591797 L 45.505859 18.898438 L 43.287109 18.898438 L 42.677734 21.591797 L 40.039062 21.591797 L 42.769531 10.552734 z M 33.113281 10.597656 L 39.820312 10.597656 L 39.820312 12.666016 L 37.775391 12.666016 L 37.775391 21.591797 L 35.158203 21.591797 L 35.158203 12.666016 L 33.113281 12.666016 L 33.113281 10.597656 z M 49.798828 10.597656 L 52.716797 10.597656 C 53.924935 10.597656 54.818035 10.869597 55.394531 11.416016 C 55.971029 11.962435 56.257812 12.799804 56.257812 13.927734 C 56.257812 15.236132 55.80944 16.18776 54.912109 16.779297 L 57.017578 21.591797 L 54.244141 21.591797 L 52.558594 17.439453 L 52.423828 17.439453 L 52.423828 21.591797 L 49.798828 21.591797 L 49.798828 10.597656 z M 57.056641 10.597656 L 63.763672 10.597656 L 63.763672 12.666016 L 61.71875 12.666016 L 61.71875 21.591797 L 59.101562 21.591797 L 59.101562 12.666016 L 57.056641 12.666016 L 57.056641 10.597656 z M 52.423828 12.634766 L 52.423828 15.410156 L 52.619141 15.410156 C 52.965038 15.410156 53.21569 15.292252 53.371094 15.056641 C 53.53151 14.821028 53.611328 14.464518 53.611328 13.988281 C 53.611328 13.507031 53.52871 13.161718 53.363281 12.951172 C 53.202865 12.740625 52.949414 12.634766 52.603516 12.634766 L 52.423828 12.634766 z M 44.400391 13.921875 C 44.320183 14.307878 44.107617 15.272395 43.761719 16.816406 L 45.054688 16.816406 L 44.400391 13.921875 z " />
  <g
     id="lettersgroup"
     transform="translate(20.456,-0.844) scale(0.77)" />
</svg>
