<?xml version="1.0" encoding="UTF-8" standalone="no"?>
<svg
   width="99"
   height="32"
   viewBox="0 0 99 32"
   version="1.1"
   id="svg1"
   xmlns="http://www.w3.org/2000/svg"
   xmlns:svg="http://www.w3.org/2000/svg">
  <defs
     id="defs1" />
  <path
     id="pillshape" fill="#fff"
     d="M 16 2 A 14 14 0 0 0 2 16 A 14 14 0 0 0 16 30 L 83 30 A 14 14 0 0 0 97 16 A 14 14 0 0 0 83 2 L 16 2 z M 30.076172 8.984375 C 31.235172 8.984375 32.376573 9.3242861 33.503906 10.001953 L 32.488281 12.443359 C 32.450284 12.424357 32.351694 12.373348 32.193359 12.291016 C 32.035025 12.202349 31.934957 12.147907 31.890625 12.128906 C 31.846291 12.103575 31.754568 12.059429 31.615234 11.996094 C 31.475901 11.926428 31.377313 11.878849 31.320312 11.853516 L 31.0625 11.757812 C 30.783833 11.650145 30.515526 11.597656 30.255859 11.597656 C 30.002526 11.597656 29.800438 11.714885 29.648438 11.949219 C 29.502771 12.177219 29.429688 12.455823 29.429688 12.785156 C 29.429688 13.108156 29.470401 13.376464 29.552734 13.591797 C 29.635068 13.80713 29.762593 14.00774 29.933594 14.191406 C 30.224927 14.495406 30.581526 14.785787 31.005859 15.064453 C 31.848193 15.634454 32.481917 16.235808 32.90625 16.869141 C 33.336916 17.496141 33.552734 18.253958 33.552734 19.140625 C 33.552734 20.464291 33.197614 21.48012 32.488281 22.189453 C 31.778948 22.892454 30.768031 23.244141 29.457031 23.244141 C 28.152365 23.244141 27.012443 22.968969 26.037109 22.417969 L 26.037109 19.300781 C 27.417776 20.206448 28.479704 20.660156 29.220703 20.660156 C 29.55637 20.660156 29.812901 20.549791 29.990234 20.328125 C 30.167567 20.100124 30.255859 19.824953 30.255859 19.501953 C 30.255859 19.172619 30.208281 18.894016 30.113281 18.666016 C 30.018281 18.431682 29.878979 18.215865 29.695312 18.019531 C 29.511645 17.823198 29.336542 17.661823 29.171875 17.535156 C 29.013542 17.402156 28.814886 17.249125 28.574219 17.078125 C 27.744552 16.495458 27.129469 15.882328 26.730469 15.236328 C 26.337802 14.590329 26.142578 13.825646 26.142578 12.945312 C 26.142578 11.729313 26.506042 10.767927 27.234375 10.058594 C 27.969042 9.3429272 28.917172 8.984375 30.076172 8.984375 z M 46.681641 9.1171875 L 50.794922 9.1171875 L 54.251953 23.064453 L 50.908203 23.064453 L 50.138672 19.662109 L 47.335938 19.662109 L 46.566406 23.064453 L 43.232422 23.064453 L 46.681641 9.1171875 z M 34.482422 9.1738281 L 42.957031 9.1738281 L 42.957031 11.787109 L 40.373047 11.787109 L 40.373047 23.064453 L 37.066406 23.064453 L 37.066406 11.787109 L 34.482422 11.787109 L 34.482422 9.1738281 z M 55.564453 9.1738281 L 59.25 9.1738281 C 60.776334 9.1738281 61.90448 9.5206046 62.632812 10.210938 C 63.361146 10.901271 63.724609 11.957812 63.724609 13.382812 C 63.724609 15.035812 63.157105 16.237041 62.023438 16.984375 L 64.683594 23.064453 L 61.177734 23.064453 L 59.050781 17.820312 L 58.878906 17.820312 L 58.878906 23.064453 L 55.564453 23.064453 L 55.564453 9.1738281 z M 64.730469 9.1738281 L 73.205078 9.1738281 L 73.205078 11.787109 L 70.621094 11.787109 L 70.621094 23.064453 L 67.314453 23.064453 L 67.314453 11.787109 L 64.730469 11.787109 L 64.730469 9.1738281 z M 58.878906 11.75 L 58.878906 15.253906 L 59.126953 15.253906 C 59.563952 15.253906 59.879839 15.106261 60.076172 14.808594 C 60.278839 14.510927 60.380859 14.060651 60.380859 13.458984 C 60.380859 12.850984 60.275406 12.414437 60.066406 12.148438 C 59.863739 11.882437 59.544422 11.75 59.107422 11.75 L 58.878906 11.75 z M 48.742188 13.373047 C 48.640854 13.860713 48.372547 15.080584 47.935547 17.03125 L 49.570312 17.03125 L 48.742188 13.373047 z " />
  <g
     id="lettersgroup"
     transform="translate(18.492,-5.280) scale(0.9728)" />
</svg>
