<?xml version="1.0" encoding="UTF-8" standalone="no"?>
<svg
   width="109"
   height="32"
   viewBox="0 0 109 32"
   version="1.1"
   id="svg1"
   xmlns="http://www.w3.org/2000/svg"
   xmlns:svg="http://www.w3.org/2000/svg">
  <defs
     id="defs1" />
  <path
     id="pillshape" fill="#fff"
     d="M 16 2 A 14 14 0 0 0 2 16 A 14 14 0 0 0 16 30 L 93 30 A 14 14 0 0 0 107 16 A 14 14 0 0 0 93 2 L 16 2 z M 20.566406 5.5429688 C 22.293945 5.5429687 23.997396 6.0485035 25.677734 7.0585938 L 24.162109 10.697266 C 24.105472 10.668943 23.960616 10.593422 23.724609 10.470703 C 23.488607 10.338541 23.337565 10.25879 23.271484 10.230469 C 23.205404 10.192711 23.067057 10.125652 22.859375 10.03125 C 22.651693 9.9274082 22.506836 9.8580734 22.421875 9.8203125 L 22.039062 9.6777344 C 21.623698 9.5172527 21.222982 9.4375 20.835938 9.4375 C 20.458333 9.4375 20.15625 9.6116528 19.929688 9.9609375 C 19.712565 10.300781 19.603516 10.716145 19.603516 11.207031 C 19.603516 11.688476 19.664388 12.089192 19.787109 12.410156 C 19.909831 12.73112 20.098633 13.028971 20.353516 13.302734 C 20.78776 13.755859 21.320638 14.190105 21.953125 14.605469 C 23.20866 15.455079 24.152669 16.352866 24.785156 17.296875 C 25.427083 18.231445 25.748047 19.358072 25.748047 20.679688 C 25.748047 22.652669 25.2194 24.16927 24.162109 25.226562 C 23.104817 26.274415 21.600586 26.796875 19.646484 26.796875 C 17.701823 26.796875 16.002604 26.387696 14.548828 25.566406 L 14.548828 20.921875 C 16.606771 22.271811 18.186524 22.945312 19.291016 22.945312 C 19.791341 22.945312 20.17513 22.781576 20.439453 22.451172 C 20.703776 22.111328 20.835938 21.700196 20.835938 21.21875 C 20.835938 20.727866 20.764648 20.312501 20.623047 19.972656 C 20.481445 19.623373 20.273763 19.302409 20 19.009766 C 19.726237 18.717122 19.466146 18.475911 19.220703 18.287109 C 18.984701 18.088868 18.686849 17.862306 18.328125 17.607422 C 17.091471 16.738933 16.176758 15.824218 15.582031 14.861328 C 14.996745 13.898438 14.703125 12.75944 14.703125 11.447266 C 14.703125 9.6347656 15.246419 8.1998688 16.332031 7.1425781 C 17.427083 6.075845 18.838867 5.5429688 20.566406 5.5429688 z M 75.974609 5.5429688 C 76.805339 5.5429688 77.602539 5.6666664 78.367188 5.9121094 C 79.141276 6.1575523 79.978191 6.5667309 80.875 7.1425781 L 79.458984 10.640625 C 79.38346 10.565099 79.198889 10.443354 78.90625 10.273438 C 78.613607 10.094075 78.345052 9.9514965 78.099609 9.8476562 C 77.448243 9.5550129 76.837891 9.4082031 76.271484 9.4082031 C 75.714518 9.4082031 75.25716 9.5738941 74.898438 9.9042969 C 74.539713 10.22526 74.260743 10.621745 74.0625 11.09375 C 73.864257 11.565755 73.708986 12.132162 73.595703 12.792969 C 73.397462 13.8597 73.298828 15.007162 73.298828 16.234375 C 73.298828 20.690105 74.314128 22.917969 76.34375 22.917969 C 77.23112 22.917969 78.54655 22.416666 80.292969 21.416016 L 80.292969 25.59375 C 79.056314 26.39616 77.598307 26.796875 75.917969 26.796875 C 74.775715 26.796875 73.756184 26.603842 72.859375 26.216797 C 71.972004 25.820313 71.246094 25.295899 70.679688 24.644531 C 70.113281 23.993164 69.645507 23.20638 69.277344 22.28125 C 68.607096 20.600912 68.271484 18.574543 68.271484 16.205078 C 68.271484 14.335937 68.508463 12.613607 68.980469 11.037109 C 69.452474 9.4417324 70.253906 8.1305332 71.386719 7.1015625 C 72.557291 6.0631508 74.086589 5.5429688 75.974609 5.5429688 z M 28.652344 5.8261719 L 38.917969 5.8261719 L 38.917969 9.6640625 L 33.607422 9.6640625 L 33.607422 13.841797 L 38.535156 13.841797 L 38.535156 17.693359 L 33.607422 17.693359 L 33.607422 22.648438 L 38.917969 22.648438 L 38.917969 26.529297 L 28.652344 26.529297 L 28.652344 5.8261719 z M 42.246094 5.8261719 L 47.201172 5.8261719 L 47.201172 22.648438 L 52.384766 22.648438 L 52.384766 26.529297 L 42.246094 26.529297 L 42.246094 5.8261719 z M 55.443359 5.8261719 L 65.708984 5.8261719 L 65.708984 9.6640625 L 60.398438 9.6640625 L 60.398438 13.841797 L 65.326172 13.841797 L 65.326172 17.693359 L 60.398438 17.693359 L 60.398438 22.648438 L 65.708984 22.648438 L 65.708984 26.529297 L 55.443359 26.529297 L 55.443359 5.8261719 z M 82.191406 5.8261719 L 94.822266 5.8261719 L 94.822266 9.7207031 L 90.970703 9.7207031 L 90.970703 26.529297 L 86.042969 26.529297 L 86.042969 9.7207031 L 82.191406 9.7207031 L 82.191406 5.8261719 z " />
  <g
     id="lettersgroup"
     transform="translate(8.285,-15.719) scale(1.45)" />
</svg>
