<?xml version="1.0" encoding="UTF-8" standalone="no"?>
<svg
   width="195"
   height="64"
   viewBox="0 0 195 64"
   version="1.1"
   id="svg1"
   xmlns="http://www.w3.org/2000/svg"
   xmlns:svg="http://www.w3.org/2000/svg">
  <defs
     id="defs1" />
  <path
     id="pillshape" fill="#fff"
     d="M 30 4 A 28 28 0 0 0 2 32 A 28 28 0 0 0 30 60 L 165 60 A 28 28 0 0 0 193 32 A 28 28 0 0 0 165 4 L 30 4 z M 60.060547 18.478516 C 62.294433 18.478516 64.497071 19.131349 66.669922 20.4375 L 64.710938 25.142578 C 64.6377 25.105954 64.447759 25.008298 64.142578 24.849609 C 63.837401 24.678711 63.64209 24.575685 63.556641 24.539062 C 63.471191 24.490237 63.293943 24.405275 63.025391 24.283203 C 62.756834 24.148925 62.568848 24.056641 62.458984 24.007812 L 61.964844 23.824219 C 61.427733 23.616699 60.908693 23.513672 60.408203 23.513672 C 59.919923 23.513672 59.529297 23.739745 59.236328 24.191406 C 58.955568 24.630859 58.814453 25.167968 58.814453 25.802734 C 58.814453 26.425293 58.894042 26.944334 59.052734 27.359375 C 59.211425 27.774414 59.455565 28.157715 59.785156 28.511719 C 60.346679 29.097656 61.035644 29.660157 61.853516 30.197266 C 63.47705 31.295899 64.697754 32.455079 65.515625 33.675781 C 66.345703 34.884277 66.761719 36.343749 66.761719 38.052734 C 66.761719 40.604004 66.078126 42.562499 64.710938 43.929688 C 63.343749 45.284669 61.395996 45.962891 58.869141 45.962891 C 56.354492 45.962891 54.157227 45.431154 52.277344 44.369141 L 52.277344 38.363281 C 54.938477 40.108888 56.983886 40.982422 58.412109 40.982422 C 59.059082 40.982422 59.552734 40.769044 59.894531 40.341797 C 60.236327 39.902344 60.408203 39.370607 60.408203 38.748047 C 60.408203 38.113282 60.315917 37.576174 60.132812 37.136719 C 59.949708 36.685059 59.682129 36.269043 59.328125 35.890625 C 58.974119 35.512207 58.637694 35.201171 58.320312 34.957031 C 58.015138 34.700685 57.629883 34.407716 57.166016 34.078125 C 55.566894 32.955079 54.384277 31.77246 53.615234 30.527344 C 52.858398 29.282227 52.478516 27.810059 52.478516 26.113281 C 52.478516 23.769531 53.182129 21.914061 54.585938 20.546875 C 56.001953 19.167479 57.826659 18.478516 60.060547 18.478516 z M 92.066406 18.734375 L 99.996094 18.734375 L 106.66016 45.615234 L 100.21484 45.615234 L 98.732422 39.058594 L 93.330078 39.058594 L 91.847656 45.615234 L 85.419922 45.615234 L 92.066406 18.734375 z M 68.556641 18.84375 L 84.888672 18.84375 L 84.888672 23.878906 L 79.908203 23.878906 L 79.908203 45.615234 L 73.537109 45.615234 L 73.537109 23.878906 L 68.556641 23.878906 L 68.556641 18.84375 z M 109.1875 18.84375 L 116.29102 18.84375 C 119.23291 18.84375 121.40674 19.509276 122.81055 20.839844 C 124.21436 22.170409 124.91602 24.208496 124.91602 26.955078 C 124.91602 30.141114 123.82373 32.456055 121.63867 33.896484 L 126.76562 45.615234 L 120.00781 45.615234 L 115.90625 35.507812 L 115.57812 35.507812 L 115.57812 45.615234 L 109.1875 45.615234 L 109.1875 18.84375 z M 126.85742 18.84375 L 143.18945 18.84375 L 143.18945 23.878906 L 138.20898 23.878906 L 138.20898 45.615234 L 131.83789 45.615234 L 131.83789 23.878906 L 126.85742 23.878906 L 126.85742 18.84375 z M 115.57812 23.806641 L 115.57812 30.5625 L 116.05273 30.5625 C 116.89502 30.5625 117.50635 30.276854 117.88477 29.703125 C 118.27539 29.129394 118.4707 28.261229 118.4707 27.101562 C 118.4707 25.929688 118.27002 25.088866 117.86719 24.576172 C 117.47656 24.063476 116.85986 23.806641 116.01758 23.806641 L 115.57812 23.806641 z M 96.041016 26.9375 C 95.845703 27.877441 95.326659 30.226561 94.484375 33.986328 L 97.632812 33.986328 L 96.041016 26.9375 z " />
  <g
     id="lettersgroup"
     transform="translate(37.734,-9.016) scale(1.8750)" />
</svg>
