<?xml version="1.0" encoding="UTF-8" standalone="no"?>
<svg
   width="106"
   height="32"
   viewBox="0 0 106 32"
   version="1.1"
   id="svg1"
   xmlns="http://www.w3.org/2000/svg"
   xmlns:svg="http://www.w3.org/2000/svg">
  <defs
     id="defs1" />
  <path
     id="pillshape" fill="#fff"
     d="M 16 2 A 14 14 0 0 0 2 16 A 14 14 0 0 0 16 30 L 90 30 A 14 14 0 0 0 104 16 A 14 14 0 0 0 90 2 L 16 2 z M 30.232422 8.984375 C 31.391422 8.984375 32.534776 9.3242861 33.662109 10.001953 L 32.646484 12.443359 C 32.608487 12.424357 32.509898 12.373348 32.351562 12.291016 C 32.19323 12.202349 32.091207 12.147907 32.046875 12.128906 C 32.002541 12.103575 31.910818 12.059429 31.771484 11.996094 C 31.632151 11.926428 31.535516 11.878849 31.478516 11.853516 L 31.220703 11.757812 C 30.942036 11.650145 30.673729 11.597656 30.414062 11.597656 C 30.160729 11.597656 29.958641 11.714885 29.806641 11.949219 C 29.660974 12.177219 29.587891 12.455823 29.587891 12.785156 C 29.587891 13.108156 29.628604 13.376464 29.710938 13.591797 C 29.793271 13.80713 29.920797 14.00774 30.091797 14.191406 C 30.38313 14.495406 30.739729 14.785787 31.164062 15.064453 C 32.006396 15.634454 32.64012 16.235808 33.064453 16.869141 C 33.495119 17.496141 33.710938 18.253958 33.710938 19.140625 C 33.710937 20.464291 33.355818 21.48012 32.646484 22.189453 C 31.937152 22.892454 30.926234 23.244141 29.615234 23.244141 C 28.310568 23.244141 27.170646 22.968969 26.195312 22.417969 L 26.195312 19.300781 C 27.575979 20.206448 28.637906 20.660156 29.378906 20.660156 C 29.714573 20.660156 29.971104 20.549791 30.148438 20.328125 C 30.325771 20.100124 30.414062 19.824953 30.414062 19.501953 C 30.414062 19.172619 30.366484 18.894016 30.271484 18.666016 C 30.176484 18.431682 30.037182 18.215865 29.853516 18.019531 C 29.669849 17.823198 29.494745 17.661823 29.330078 17.535156 C 29.171745 17.402156 28.973089 17.249125 28.732422 17.078125 C 27.902755 16.495458 27.287672 15.882328 26.888672 15.236328 C 26.496005 14.590329 26.300781 13.825646 26.300781 12.945312 C 26.300781 11.729313 26.664245 10.767927 27.392578 10.058594 C 28.127245 9.3429272 29.073422 8.984375 30.232422 8.984375 z M 67.40625 8.984375 C 67.963584 8.984375 68.498719 9.0677541 69.011719 9.2324219 C 69.531052 9.3970877 70.091693 9.6722608 70.693359 10.058594 L 69.744141 12.404297 C 69.69347 12.353627 69.569376 12.2722 69.373047 12.158203 C 69.176713 12.03787 68.996698 11.942714 68.832031 11.873047 C 68.395032 11.676713 67.98547 11.578125 67.605469 11.578125 C 67.231803 11.578125 66.926213 11.688489 66.685547 11.910156 C 66.44488 12.125489 66.258 12.392318 66.125 12.708984 C 65.992 13.025651 65.886547 13.406277 65.810547 13.849609 C 65.677547 14.565277 65.611328 15.33487 65.611328 16.158203 C 65.611328 19.147536 66.29263 20.640625 67.654297 20.640625 C 68.24963 20.640625 69.13302 20.306099 70.304688 19.634766 L 70.304688 22.4375 C 69.47502 22.975834 68.496474 23.244141 67.369141 23.244141 C 66.602808 23.244141 65.918072 23.115136 65.316406 22.855469 C 64.721072 22.589469 64.233516 22.237781 63.853516 21.800781 C 63.473516 21.363781 63.161062 20.833557 62.914062 20.212891 C 62.464395 19.085557 62.238281 17.728339 62.238281 16.138672 C 62.238281 14.884672 62.396225 13.727588 62.712891 12.669922 C 63.029558 11.599588 63.568125 10.71963 64.328125 10.029297 C 65.113459 9.33263 66.139584 8.984375 67.40625 8.984375 z M 35.658203 9.1738281 L 42.544922 9.1738281 L 42.544922 11.75 L 38.982422 11.75 L 38.982422 14.550781 L 42.289062 14.550781 L 42.289062 17.134766 L 38.982422 17.134766 L 38.982422 20.460938 L 42.544922 20.460938 L 42.544922 23.064453 L 35.658203 23.064453 L 35.658203 9.1738281 z M 44.777344 9.1738281 L 48.103516 9.1738281 L 48.103516 20.460938 L 51.580078 20.460938 L 51.580078 23.064453 L 44.777344 23.064453 L 44.777344 9.1738281 z M 53.632812 9.1738281 L 60.519531 9.1738281 L 60.519531 11.75 L 56.957031 11.75 L 56.957031 14.550781 L 60.263672 14.550781 L 60.263672 17.134766 L 56.957031 17.134766 L 56.957031 20.460938 L 60.519531 20.460938 L 60.519531 23.064453 L 53.632812 23.064453 L 53.632812 9.1738281 z M 71.578125 9.1738281 L 80.050781 9.1738281 L 80.050781 11.787109 L 77.466797 11.787109 L 77.466797 23.064453 L 74.162109 23.064453 L 74.162109 11.787109 L 71.578125 11.787109 L 71.578125 9.1738281 z " />
  <g
     id="lettersgroup"
     transform="translate(21.994,-5.280) scale(0.9728)" />
</svg>
