<?xml version="1.0" encoding="UTF-8" standalone="no"?>
<svg
   width="95"
   height="32"
   viewBox="0 0 95 32"
   version="1.1"
   id="svg1"
   xmlns="http://www.w3.org/2000/svg"
   xmlns:svg="http://www.w3.org/2000/svg">
  <defs
     id="defs1" />
  <path
     id="pillshape" fill="#fff"
     d="M 16 2 A 14 14 0 0 0 2 16 A 14 14 0 0 0 16 30 L 79 30 A 14 14 0 0 0 93 16 A 14 14 0 0 0 79 2 L 16 2 z M 29.480469 10.447266 C 30.397852 10.447266 31.301042 10.71556 32.193359 11.251953 L 31.390625 13.183594 C 31.360549 13.168553 31.281578 13.129621 31.15625 13.064453 C 31.030924 12.994271 30.951107 12.950587 30.916016 12.935547 C 30.880924 12.915496 30.807552 12.880209 30.697266 12.830078 C 30.586979 12.774935 30.509961 12.738802 30.464844 12.71875 L 30.261719 12.642578 C 30.041146 12.557356 29.828581 12.515625 29.623047 12.515625 C 29.422526 12.515625 29.260938 12.607487 29.140625 12.792969 C 29.025326 12.973438 28.96875 13.194402 28.96875 13.455078 C 28.96875 13.710743 29.001237 13.923307 29.066406 14.09375 C 29.131576 14.264193 29.231836 14.422982 29.367188 14.568359 C 29.597786 14.808984 29.880924 15.039193 30.216797 15.259766 C 30.883528 15.710938 31.384831 16.186198 31.720703 16.6875 C 32.061588 17.183789 32.232422 17.782552 32.232422 18.484375 C 32.232422 19.532096 31.952084 20.336979 31.390625 20.898438 C 30.829167 21.454883 30.02793 21.734375 28.990234 21.734375 C 27.957552 21.734375 27.055208 21.516211 26.283203 21.080078 L 26.283203 18.613281 C 27.376042 19.330144 28.216211 19.6875 28.802734 19.6875 C 29.068424 19.6875 29.271745 19.601237 29.412109 19.425781 C 29.552474 19.245313 29.623047 19.027148 29.623047 18.771484 C 29.623047 18.510808 29.584961 18.289844 29.509766 18.109375 C 29.43457 17.923893 29.325065 17.75306 29.179688 17.597656 C 29.03431 17.442253 28.895964 17.315104 28.765625 17.214844 C 28.640299 17.10957 28.48151 16.988867 28.291016 16.853516 C 27.63431 16.392317 27.147852 15.905859 26.832031 15.394531 C 26.521224 14.883203 26.367188 14.278841 26.367188 13.582031 C 26.367187 12.619531 26.653971 11.858334 27.230469 11.296875 C 27.811979 10.730404 28.563086 10.447266 29.480469 10.447266 z M 58.904297 10.447266 C 59.345443 10.447266 59.767773 10.512239 60.173828 10.642578 C 60.584896 10.772917 61.029623 10.991081 61.505859 11.296875 L 60.753906 13.154297 C 60.713799 13.114191 60.616338 13.049216 60.460938 12.958984 C 60.305533 12.863737 60.161589 12.787565 60.03125 12.732422 C 59.685351 12.577018 59.363281 12.5 59.0625 12.5 C 58.766731 12.5 58.522526 12.588216 58.332031 12.763672 C 58.141536 12.934114 57.993946 13.14388 57.888672 13.394531 C 57.783398 13.645182 57.700781 13.945964 57.640625 14.296875 C 57.535351 14.863346 57.482422 15.473307 57.482422 16.125 C 57.482422 18.491146 58.02181 19.673828 59.099609 19.673828 C 59.570833 19.673828 60.269857 19.408333 61.197266 18.876953 L 61.197266 21.09375 C 60.54056 21.519857 59.765364 21.734375 58.873047 21.734375 C 58.266471 21.734375 57.726237 21.631315 57.25 21.425781 C 56.778776 21.215234 56.392578 20.935742 56.091797 20.589844 C 55.791016 20.243944 55.543164 19.827214 55.347656 19.335938 C 54.991731 18.44362 54.8125 17.367644 54.8125 16.109375 C 54.8125 15.116796 54.938802 14.202408 55.189453 13.365234 C 55.440104 12.518033 55.865234 11.819856 56.466797 11.273438 C 57.088411 10.722005 57.901693 10.447266 58.904297 10.447266 z M 33.773438 10.597656 L 39.224609 10.597656 L 39.224609 12.634766 L 36.404297 12.634766 L 36.404297 14.853516 L 39.021484 14.853516 L 39.021484 16.898438 L 36.404297 16.898438 L 36.404297 19.53125 L 39.224609 19.53125 L 39.224609 21.591797 L 33.773438 21.591797 L 33.773438 10.597656 z M 40.992188 10.597656 L 43.623047 10.597656 L 43.623047 19.53125 L 46.376953 19.53125 L 46.376953 21.591797 L 40.992188 21.591797 L 40.992188 10.597656 z M 48 10.597656 L 53.451172 10.597656 L 53.451172 12.634766 L 50.632812 12.634766 L 50.632812 14.853516 L 53.248047 14.853516 L 53.248047 16.898438 L 50.632812 16.898438 L 50.632812 19.53125 L 53.451172 19.53125 L 53.451172 21.591797 L 48 21.591797 L 48 10.597656 z M 62.205078 10.597656 L 68.912109 10.597656 L 68.912109 12.666016 L 66.867188 12.666016 L 66.867188 21.591797 L 64.25 21.591797 L 64.25 12.666016 L 62.205078 12.666016 L 62.205078 10.597656 z " />
  <g
     id="lettersgroup"
     transform="translate(22.958,-0.844) scale(0.77)" />
</svg>
