<?xml version="1.0" encoding="UTF-8" standalone="no"?>
<svg
   width="208"
   height="64"
   viewBox="0 0 208 64"
   version="1.1"
   id="svg1"
   xmlns="http://www.w3.org/2000/svg"
   xmlns:svg="http://www.w3.org/2000/svg">
  <defs
     id="defs1" />
  <path
     id="pillshape" fill="#fff"
     d="M 30 4 A 28 28 0 0 0 2 32 A 28 28 0 0 0 30 60 L 178 60 A 28 28 0 0 0 206 32 A 28 28 0 0 0 178 4 L 30 4 z M 60.119141 18.478516 C 62.353027 18.478516 64.557617 19.131349 66.730469 20.4375 L 64.771484 25.142578 C 64.698247 25.105954 64.508306 25.008298 64.203125 24.849609 C 63.89795 24.678711 63.702637 24.575685 63.617188 24.539062 C 63.531738 24.490237 63.354492 24.405275 63.085938 24.283203 C 62.817383 24.148925 62.627441 24.056641 62.517578 24.007812 L 62.023438 23.824219 C 61.486328 23.616699 60.967285 23.513672 60.466797 23.513672 C 59.978516 23.513672 59.587891 23.739745 59.294922 24.191406 C 59.01416 24.630859 58.875 25.167968 58.875 25.802734 C 58.875 26.425293 58.95459 26.944334 59.113281 27.359375 C 59.271973 27.774414 59.516113 28.157715 59.845703 28.511719 C 60.407226 29.097656 61.096191 29.660157 61.914062 30.197266 C 63.537597 31.295899 64.758301 32.455079 65.576172 33.675781 C 66.406249 34.884277 66.822266 36.343749 66.822266 38.052734 C 66.822266 40.604004 66.138672 42.562499 64.771484 43.929688 C 63.404298 45.284669 61.456543 45.962891 58.929688 45.962891 C 56.415039 45.962891 54.217774 45.431154 52.337891 44.369141 L 52.337891 38.363281 C 54.999024 40.108888 57.044434 40.982422 58.472656 40.982422 C 59.119629 40.982422 59.613281 40.769044 59.955078 40.341797 C 60.296875 39.902344 60.466797 39.370607 60.466797 38.748047 C 60.466797 38.113282 60.376465 37.576174 60.193359 37.136719 C 60.010254 36.685059 59.740723 36.269043 59.386719 35.890625 C 59.032715 35.512207 58.698242 35.201171 58.380859 34.957031 C 58.075684 34.700685 57.69043 34.407716 57.226562 34.078125 C 55.627441 32.955079 54.442871 31.77246 53.673828 30.527344 C 52.916992 29.282227 52.539062 27.810059 52.539062 26.113281 C 52.539062 23.769531 53.240723 21.914061 54.644531 20.546875 C 56.060547 19.167479 57.885254 18.478516 60.119141 18.478516 z M 131.76953 18.478516 C 132.84375 18.478516 133.87451 18.637695 134.86328 18.955078 C 135.86426 19.272461 136.94385 19.802245 138.10352 20.546875 L 136.27344 25.070312 C 136.17578 24.972649 135.93701 24.81347 135.55859 24.59375 C 135.18018 24.361816 134.83301 24.179198 134.51562 24.044922 C 133.67334 23.666504 132.88672 23.476562 132.1543 23.476562 C 131.43408 23.476563 130.84082 23.689943 130.37695 24.117188 C 129.91309 24.532226 129.55322 25.045898 129.29688 25.65625 C 129.04053 26.266602 128.83984 26.999024 128.69336 27.853516 C 128.43701 29.23291 128.30859 30.715821 128.30859 32.302734 C 128.30859 38.064454 129.61963 40.945312 132.24414 40.945312 C 133.3916 40.945312 135.09521 40.297851 137.35352 39.003906 L 137.35352 44.40625 C 135.75439 45.443849 133.86816 45.962891 131.69531 45.962891 C 130.21826 45.962891 128.8999 45.711428 127.74023 45.210938 C 126.59277 44.698243 125.65234 44.021973 124.91992 43.179688 C 124.1875 42.337402 123.5835 41.317383 123.10742 40.121094 C 122.24072 37.948242 121.80859 35.329589 121.80859 32.265625 C 121.80859 29.848632 122.1123 27.620606 122.72266 25.582031 C 123.33301 23.519044 124.37109 21.822753 125.83594 20.492188 C 127.34961 19.149414 129.32813 18.478516 131.76953 18.478516 z M 70.574219 18.84375 L 83.849609 18.84375 L 83.849609 23.806641 L 76.984375 23.806641 L 76.984375 29.208984 L 83.355469 29.208984 L 83.355469 34.189453 L 76.984375 34.189453 L 76.984375 40.597656 L 83.849609 40.597656 L 83.849609 45.615234 L 70.574219 45.615234 L 70.574219 18.84375 z M 88.152344 18.84375 L 94.5625 18.84375 L 94.5625 40.597656 L 101.26367 40.597656 L 101.26367 45.615234 L 88.152344 45.615234 L 88.152344 18.84375 z M 105.21875 18.84375 L 118.49414 18.84375 L 118.49414 23.806641 L 111.62695 23.806641 L 111.62695 29.208984 L 118 29.208984 L 118 34.189453 L 111.62695 34.189453 L 111.62695 40.597656 L 118.49414 40.597656 L 118.49414 45.615234 L 105.21875 45.615234 L 105.21875 18.84375 z M 139.80664 18.84375 L 156.14062 18.84375 L 156.14062 23.878906 L 151.16016 23.878906 L 151.16016 45.615234 L 144.78711 45.615234 L 144.78711 23.878906 L 139.80664 23.878906 L 139.80664 18.84375 z " />
  <g
     id="lettersgroup"
     transform="translate(44.239,-9.016) scale(1.8750)" />
</svg>
