<?xml version="1.0" encoding="UTF-8" standalone="no"?>
<svg
   width="99"
   height="32"
   viewBox="0 0 99 32"
   version="1.1"
   id="svg1"
   xmlns="http://www.w3.org/2000/svg"
   xmlns:svg="http://www.w3.org/2000/svg">
  <defs
     id="defs1" />
  <path
     id="pillshape" fill="#fff"
     d="M 16 2 A 14 14 0 0 0 2 16 A 14 14 0 0 0 16 30 L 83 30 A 14 14 0 0 0 97 16 A 14 14 0 0 0 83 2 L 16 2 z M 20.546875 5.5429688 C 22.274414 5.5429687 23.977865 6.0485035 25.658203 7.0585938 L 24.142578 10.697266 C 24.085941 10.668943 23.941084 10.593422 23.705078 10.470703 C 23.469075 10.338541 23.318034 10.25879 23.251953 10.230469 C 23.185872 10.192711 23.047524 10.125652 22.839844 10.03125 C 22.63216 9.9274082 22.487305 9.8580734 22.402344 9.8203125 L 22.019531 9.6777344 C 21.604166 9.5172527 21.20345 9.4375 20.816406 9.4375 C 20.438802 9.4375 20.136719 9.6116528 19.910156 9.9609375 C 19.693033 10.300781 19.583986 10.716145 19.583984 11.207031 C 19.583984 11.688476 19.644857 12.089192 19.767578 12.410156 C 19.890299 12.73112 20.079102 13.028971 20.333984 13.302734 C 20.768229 13.755859 21.301107 14.190105 21.933594 14.605469 C 23.189127 15.455079 24.133138 16.352866 24.765625 17.296875 C 25.407552 18.231445 25.728516 19.358072 25.728516 20.679688 C 25.728516 22.652669 25.19987 24.16927 24.142578 25.226562 C 23.085287 26.274415 21.581054 26.796875 19.626953 26.796875 C 17.682292 26.796875 15.983073 26.387696 14.529297 25.566406 L 14.529297 20.921875 C 16.58724 22.271811 18.166993 22.945312 19.271484 22.945312 C 19.77181 22.945312 20.155598 22.781576 20.419922 22.451172 C 20.684244 22.111328 20.816406 21.700196 20.816406 21.21875 C 20.816406 20.727866 20.745117 20.312501 20.603516 19.972656 C 20.461916 19.623373 20.254232 19.302409 19.980469 19.009766 C 19.706704 18.717122 19.446615 18.475911 19.201172 18.287109 C 18.96517 18.088868 18.667318 17.862306 18.308594 17.607422 C 17.07194 16.738933 16.157226 15.824218 15.5625 14.861328 C 14.977213 13.898438 14.683594 12.75944 14.683594 11.447266 C 14.683594 9.6347656 15.226888 8.1998688 16.3125 7.1425781 C 17.407552 6.075845 18.819335 5.5429688 20.546875 5.5429688 z M 45.298828 5.7421875 L 51.429688 5.7421875 L 56.583984 26.529297 L 51.599609 26.529297 L 50.453125 21.458984 L 46.275391 21.458984 L 45.128906 26.529297 L 40.158203 26.529297 L 45.298828 5.7421875 z M 27.117188 5.8261719 L 39.748047 5.8261719 L 39.748047 9.7207031 L 35.896484 9.7207031 L 35.896484 26.529297 L 30.96875 26.529297 L 30.96875 9.7207031 L 27.117188 9.7207031 L 27.117188 5.8261719 z M 58.539062 5.8261719 L 64.033203 5.8261719 C 66.308269 5.8261719 67.988607 6.3401684 69.074219 7.3691406 C 70.159831 8.3981114 70.701172 9.9755856 70.701172 12.099609 C 70.701172 14.563477 69.857747 16.352865 68.167969 17.466797 L 72.132812 26.529297 L 66.90625 26.529297 L 63.734375 18.712891 L 63.480469 18.712891 L 63.480469 26.529297 L 58.539062 26.529297 L 58.539062 5.8261719 z M 72.203125 5.8261719 L 84.833984 5.8261719 L 84.833984 9.7207031 L 80.982422 9.7207031 L 80.982422 26.529297 L 76.054688 26.529297 L 76.054688 9.7207031 L 72.203125 9.7207031 L 72.203125 5.8261719 z M 63.480469 9.6640625 L 63.480469 14.888672 L 63.847656 14.888672 C 64.499022 14.888672 64.97103 14.66634 65.263672 14.222656 C 65.565756 13.778971 65.716797 13.1097 65.716797 12.212891 C 65.716797 11.306641 65.561524 10.654296 65.25 10.257812 C 64.947917 9.8613274 64.47168 9.6640625 63.820312 9.6640625 L 63.480469 9.6640625 z M 48.371094 12.085938 C 48.220053 12.812825 47.819336 14.629556 47.167969 17.537109 L 49.603516 17.537109 L 48.371094 12.085938 z " />
  <g
     id="lettersgroup"
     transform="translate(3.281,-15.719) scale(1.45)" />
</svg>
