<?xml version="1.0" encoding="UTF-8" standalone="no"?>
<svg
   width="198"
   height="64"
   viewBox="0 0 198 64"
   version="1.1"
   id="svg1"
   xmlns="http://www.w3.org/2000/svg"
   xmlns:svg="http://www.w3.org/2000/svg">
  <defs
     id="defs1" />
  <path
     id="outline" d="m2 32a28.0 28.0 0 0 1 28.0-28.0h138.0a28.0 28.0 0 0 1 28.0 28.0 28.0 28.0 0 0 1 -28.0 28.0h-138.0a28.0 28.0 0 0 1 -28.0 -28.0z" fill="none" stroke="#fff" stroke-width="2"/><path
     id="pillshape" fill="#fff"
     d="M 30 4 A 28 28 0 0 0 2 32 A 28 28 0 0 0 30 60 L 168 60 A 28 28 0 0 0 196 32 A 28 28 0 0 0 168 4 L 30 4 z M 59.859375 17.722656 C 62.180277 17.722656 64.469073 18.400781 66.726562 19.757812 L 64.691406 24.646484 C 64.615316 24.608433 64.418631 24.508618 64.101562 24.34375 C 63.7845 24.166194 63.580965 24.05758 63.492188 24.019531 C 63.40341 23.968804 63.218468 23.880733 62.939453 23.753906 C 62.660438 23.614398 62.465706 23.519481 62.351562 23.46875 L 61.837891 23.277344 C 61.279858 23.061739 60.740687 22.955078 60.220703 22.955078 C 59.713401 22.955078 59.306334 23.18895 59.001953 23.658203 C 58.710256 24.114774 58.564453 24.672541 58.564453 25.332031 C 58.564453 25.97884 58.647628 26.518011 58.8125 26.949219 C 58.977372 27.380424 59.229838 27.780644 59.572266 28.148438 C 60.155663 28.757199 60.872927 29.340407 61.722656 29.898438 C 63.409431 31.039866 64.677614 32.243466 65.527344 33.511719 C 66.389755 34.767288 66.820312 36.283039 66.820312 38.058594 C 66.820313 40.709239 66.11185 42.745572 64.691406 44.166016 C 63.270965 45.573775 61.246376 46.277344 58.621094 46.277344 C 56.008493 46.277344 53.726546 45.726428 51.773438 44.623047 L 51.773438 38.382812 C 54.538228 40.196414 56.66263 41.103516 58.146484 41.103516 C 58.818658 41.103516 59.332389 40.881389 59.6875 40.4375 C 60.042611 39.980929 60.220703 39.428058 60.220703 38.78125 C 60.220703 38.12176 60.125784 37.563995 59.935547 37.107422 C 59.745309 36.638169 59.465449 36.207612 59.097656 35.814453 C 58.729863 35.421295 58.380527 35.0974 58.050781 34.84375 C 57.733719 34.577418 57.335452 34.27407 56.853516 33.931641 C 55.192104 32.764849 53.961108 31.533851 53.162109 30.240234 C 52.375793 28.946616 51.982422 27.419121 51.982422 25.65625 C 51.982422 23.221205 52.711431 21.29349 54.169922 19.873047 C 55.641095 18.439922 57.538473 17.722656 59.859375 17.722656 z M 93.111328 17.988281 L 101.34961 17.988281 L 108.27344 45.916016 L 101.57812 45.916016 L 100.03711 39.105469 L 94.423828 39.105469 L 92.884766 45.916016 L 86.207031 45.916016 L 93.111328 17.988281 z M 68.685547 18.103516 L 85.654297 18.103516 L 85.654297 23.333984 L 80.480469 23.333984 L 80.480469 45.916016 L 73.859375 45.916016 L 73.859375 23.333984 L 68.685547 23.333984 L 68.685547 18.103516 z M 110.89844 18.103516 L 118.28125 18.103516 C 121.33774 18.103516 123.59425 18.793387 125.05273 20.175781 C 126.51122 21.558178 127.24023 23.677681 127.24023 26.53125 C 127.24023 29.84139 126.10611 32.243697 123.83594 33.740234 L 129.16211 45.916016 L 122.14258 45.916016 L 117.88086 35.414062 L 117.53906 35.414062 L 117.53906 45.916016 L 110.89844 45.916016 L 110.89844 18.103516 z M 129.25781 18.103516 L 146.22656 18.103516 L 146.22656 23.333984 L 141.05273 23.333984 L 141.05273 45.916016 L 134.43164 45.916016 L 134.43164 23.333984 L 129.25781 23.333984 L 129.25781 18.103516 z M 117.53906 23.257812 L 117.53906 30.279297 L 118.0332 30.279297 C 118.9083 30.279297 119.54239 29.980843 119.93555 29.384766 C 120.34139 28.788686 120.54492 27.888433 120.54492 26.683594 C 120.54492 25.466071 120.33454 24.589306 119.91602 24.056641 C 119.51017 23.523974 118.87119 23.257812 117.99609 23.257812 L 117.53906 23.257812 z M 97.240234 26.511719 C 97.037315 27.488273 96.498142 29.92972 95.623047 33.835938 L 98.894531 33.835938 L 97.240234 26.511719 z " />
  <g
     id="lettersgroup"
     transform="translate(36.662870,-10.842569) scale(1.9480359116)" />
</svg>
