<?xml version="1.0" encoding="UTF-8" standalone="no"?>
<svg
   width="212"
   height="64"
   viewBox="0 0 212 64"
   version="1.1"
   id="svg1"
   xmlns="http://www.w3.org/2000/svg"
   xmlns:svg="http://www.w3.org/2000/svg">
  <defs
     id="defs1" />
  <path
     id="pillshape" fill="#fff" stroke="#fff" stroke-width="2"
     d="M 30 4 A 28 28 0 0 0 2 32 A 28 28 0 0 0 30 60 L 182 60 A 28 28 0 0 0 210 32 A 28 28 0 0 0 182 4 L 30 4 z M 60.162109 17.722656 C 62.483011 17.722656 64.771808 18.400781 67.029297 19.757812 L 64.994141 24.646484 C 64.91805 24.608433 64.721365 24.508618 64.404297 24.34375 C 64.087235 24.166194 63.8837 24.05758 63.794922 24.019531 C 63.706144 23.968804 63.523154 23.880733 63.244141 23.753906 C 62.965124 23.614398 62.76844 23.519481 62.654297 23.46875 L 62.140625 23.277344 C 61.582594 23.061739 61.043421 22.955078 60.523438 22.955078 C 60.016136 22.955078 59.611021 23.18895 59.306641 23.658203 C 59.014943 24.114774 58.869141 24.672541 58.869141 25.332031 C 58.869141 25.97884 58.950362 26.518011 59.115234 26.949219 C 59.280107 27.380424 59.534525 27.780644 59.876953 28.148438 C 60.460349 28.757199 61.177615 29.340407 62.027344 29.898438 C 63.714121 31.039866 64.982302 32.243466 65.832031 33.511719 C 66.694442 34.767288 67.125 36.283039 67.125 38.058594 C 67.125 40.709239 66.414584 42.745572 64.994141 44.166016 C 63.573699 45.573775 61.551064 46.277344 58.925781 46.277344 C 56.313181 46.277344 54.029281 45.726428 52.076172 44.623047 L 52.076172 38.382812 C 54.840963 40.196414 56.965363 41.103516 58.449219 41.103516 C 59.121392 41.103516 59.635124 40.881389 59.990234 40.4375 C 60.345345 39.980929 60.523438 39.428058 60.523438 38.78125 C 60.523437 38.12176 60.428519 37.563995 60.238281 37.107422 C 60.048043 36.638169 59.768184 36.207612 59.400391 35.814453 C 59.032597 35.421295 58.685214 35.0974 58.355469 34.84375 C 58.038406 34.577418 57.638186 34.27407 57.15625 33.931641 C 55.494839 32.764849 54.265796 31.533851 53.466797 30.240234 C 52.68048 28.946616 52.287109 27.419121 52.287109 25.65625 C 52.287109 23.221205 53.016119 21.29349 54.474609 19.873047 C 55.945782 18.439922 57.841207 17.722656 60.162109 17.722656 z M 134.60156 17.722656 C 135.71763 17.722656 136.78912 17.887051 137.81641 18.216797 C 138.85637 18.546543 139.97875 19.099414 141.18359 19.873047 L 139.28125 24.570312 C 139.17978 24.468845 138.93417 24.304451 138.54102 24.076172 C 138.14786 23.835204 137.78482 23.645368 137.45508 23.505859 C 136.57999 23.112703 135.7629 22.916016 135.00195 22.916016 C 134.25368 22.916016 133.63819 23.138144 133.15625 23.582031 C 132.67431 24.013237 132.29954 24.545563 132.0332 25.179688 C 131.76687 25.813816 131.55844 26.575114 131.40625 27.462891 C 131.13992 28.896016 131.00586 30.43721 131.00586 32.085938 C 131.00586 38.072088 132.37091 41.064453 135.09766 41.064453 C 136.28981 41.064453 138.05803 40.393175 140.4043 39.048828 L 140.4043 44.660156 C 138.74289 45.738172 136.78288 46.277344 134.52539 46.277344 C 132.9908 46.277344 131.62281 46.018032 130.41797 45.498047 C 129.22581 44.965382 128.24923 44.259858 127.48828 43.384766 C 126.72733 42.509669 126.09813 41.45187 125.60352 40.208984 C 124.70306 37.951495 124.25391 35.23019 124.25391 32.046875 C 124.25391 29.535736 124.57095 27.221498 125.20508 25.103516 C 125.8392 22.96017 126.91755 21.196848 128.43945 19.814453 C 130.01209 18.419375 132.06506 17.722656 134.60156 17.722656 z M 71.025391 18.103516 L 84.816406 18.103516 L 84.816406 23.257812 L 77.683594 23.257812 L 77.683594 28.871094 L 84.302734 28.871094 L 84.302734 34.044922 L 77.683594 34.044922 L 77.683594 40.703125 L 84.816406 40.703125 L 84.816406 45.916016 L 71.025391 45.916016 L 71.025391 18.103516 z M 89.287109 18.103516 L 95.945312 18.103516 L 95.945312 40.703125 L 102.9082 40.703125 L 102.9082 45.916016 L 89.287109 45.916016 L 89.287109 18.103516 z M 107.01758 18.103516 L 120.81055 18.103516 L 120.81055 23.257812 L 113.67578 23.257812 L 113.67578 28.871094 L 120.29688 28.871094 L 120.29688 34.044922 L 113.67578 34.044922 L 113.67578 40.703125 L 120.81055 40.703125 L 120.81055 45.916016 L 107.01758 45.916016 L 107.01758 18.103516 z M 142.95312 18.103516 L 159.92383 18.103516 L 159.92383 23.333984 L 154.74805 23.333984 L 154.74805 45.916016 L 148.12891 45.916016 L 148.12891 23.333984 L 142.95312 23.333984 L 142.95312 18.103516 z " />
  <g
     id="lettersgroup"
     transform="translate(43.662870,-10.842569) scale(1.9480359116)" />
</svg>
